<svg width="224" height="242" viewBox="0 0 224 242" fill="none" xmlns="http://www.w3.org/2000/svg">
<path d="M188.245 130.886L149.264 116.144C146.571 115.125 145.213 112.116 146.231 109.422L166.636 55.4685C167.655 52.7751 170.664 51.4169 173.358 52.4358L198.08 61.7852L209.757 88.7455L194.966 127.853C193.948 130.547 190.938 131.904 188.245 130.886Z" fill="#F5F5F5"/>
<path d="M198.08 61.785L192.337 76.9699C191.389 79.4746 192.652 82.2741 195.157 83.2218L209.756 88.7458L198.08 61.785Z" fill="#EBEBEB"/>
<path d="M192.032 78.3777C192.032 78.3777 190.447 81.9877 194.182 84.7845C194.322 84.889 194.471 84.9845 194.621 85.074C196.398 86.1358 208.104 93.1145 208.213 92.8261C208.331 92.5142 209.756 88.7456 209.756 88.7456L195.156 83.2242C195.156 83.2242 191.557 81.7208 192.032 78.3777Z" fill="#E0E0E0"/>
<path d="M189.303 75.1138C189.229 75.3089 185.131 73.9405 180.153 72.057C175.171 70.1735 171.195 68.4888 171.268 68.2937C171.342 68.0986 175.439 69.467 180.419 71.3505C185.399 73.2335 189.377 74.9187 189.303 75.1138Z" fill="#E0E0E0"/>
<path d="M197.702 88.104C197.628 88.2991 190.924 85.9444 182.729 82.8447C174.531 79.7445 167.948 77.0742 168.022 76.8791C168.096 76.684 174.799 79.0381 182.996 82.1383C191.191 85.2374 197.776 87.9089 197.702 88.104Z" fill="#E0E0E0"/>
<path d="M197.664 96.284C197.59 96.4791 190.287 93.8977 181.354 90.5198C172.418 87.1403 165.237 84.2433 165.311 84.0482C165.384 83.8531 172.685 86.4339 181.622 89.8134C190.554 93.1913 197.738 96.0889 197.664 96.284Z" fill="#E0E0E0"/>
<path d="M195.106 103.048C195.032 103.243 187.729 100.662 178.796 97.2837C169.86 93.9042 162.679 91.0071 162.753 90.812C162.826 90.6169 170.127 93.1978 179.064 96.5772C187.997 99.9551 195.18 102.853 195.106 103.048Z" fill="#E0E0E0"/>
<path d="M192.548 109.812C192.474 110.007 185.171 107.426 176.238 104.048C167.302 100.668 160.12 97.771 160.194 97.5759C160.268 97.3808 167.569 99.9616 176.505 103.341C185.438 106.719 192.622 109.617 192.548 109.812Z" fill="#E0E0E0"/>
<path d="M189.99 116.576C189.916 116.771 182.613 114.19 173.68 110.812C164.744 107.432 157.562 104.535 157.636 104.34C157.71 104.145 165.011 106.725 173.947 110.105C182.88 113.483 190.064 116.381 189.99 116.576Z" fill="#E0E0E0"/>
<path d="M86.3034 154.938L34.916 172.933C33.1381 173.555 31.1925 172.619 30.5702 170.841L4.78696 97.2132C4.16466 95.4359 5.10105 93.4897 6.87896 92.8674L58.2663 74.8728C60.0443 74.2499 61.9899 75.1869 62.6128 76.9642L88.3949 150.592C89.0177 152.37 88.0814 154.316 86.3034 154.938Z" fill="#EBEBEB"/>
<path d="M84.4834 152.429L34.7726 169.837L9.21777 96.857L58.928 79.4498L84.4834 152.429Z" fill="#E0E0E0"/>
<path d="M83.106 150.69L33.3958 168.098L8.32812 96.5117L58.0384 79.1046L83.106 150.69Z" fill="#FAFAFA"/>
<path d="M83.106 150.69C82.8959 150.092 72.8019 121.353 57.9713 79.1282L58.0619 79.1716C42.9853 84.4533 26.1179 90.3622 8.35972 96.5835L8.35382 96.5857L8.40153 96.486C17.7713 123.375 26.4926 148.207 33.4552 168.077L33.3748 168.038C63.6111 157.491 82.6182 150.86 83.106 150.69C82.6193 150.861 63.6272 157.537 33.4161 168.157L33.3571 168.178L33.3362 168.119C26.3741 148.25 17.6727 123.417 8.25412 96.538L8.22839 96.464L8.30236 96.4383L8.30826 96.4361C26.0681 90.2196 42.9371 84.315 58.0148 79.037L58.0823 79.0135L58.1059 79.081C72.8571 121.334 82.8969 150.092 83.106 150.69Z" fill="#E0E0E0"/>
<path d="M65.4725 156.865C65.4725 156.865 76.5431 147.529 78.4614 137.804C78.4614 137.804 75.3885 142.623 68.9978 143.503C68.9978 143.503 68.7759 153.712 65.4725 156.865Z" fill="#E0E0E0"/>
<path d="M27.4482 118.54L24.8304 119.456C23.8752 119.791 22.83 119.288 22.4955 118.332L21.579 115.714C21.2445 114.76 21.7473 113.714 22.7024 113.379L25.3203 112.463C26.2754 112.128 27.3211 112.632 27.6556 113.587L28.5722 116.205C28.9066 117.159 28.4033 118.205 27.4482 118.54Z" fill="#EBEBEB"/>
<path d="M25.0011 116.969C25 116.97 24.9984 116.97 24.9963 116.971C24.9566 116.983 24.9127 116.979 24.8762 116.957L23.6777 116.262C23.6059 116.221 23.5818 116.129 23.623 116.057C23.6648 115.986 23.7565 115.961 23.8283 116.003L24.8853 116.615L26.1513 113.908C26.1862 113.833 26.2757 113.8 26.3507 113.835C26.4258 113.871 26.4579 113.96 26.4231 114.035L25.0874 116.891C25.0702 116.928 25.0391 116.956 25.0011 116.969Z" fill="white"/>
<path d="M59.3292 101.384C59.3437 101.425 52.8875 103.722 44.9119 106.515C36.9324 109.31 30.4549 111.54 30.4409 111.5C30.4265 111.459 36.881 109.162 44.8599 106.368C52.8361 103.575 59.3153 101.343 59.3292 101.384Z" fill="#E0E0E0"/>
<path d="M44.1686 111.682C44.1724 111.692 44.0051 111.762 43.7001 111.878C43.3694 112.001 42.9326 112.162 42.4041 112.359C41.308 112.757 39.7895 113.298 38.1091 113.887C36.4282 114.475 34.9038 115 33.7975 115.372C33.2626 115.549 32.8204 115.695 32.4854 115.806C32.1745 115.904 32.0009 115.955 31.9971 115.944C31.9939 115.934 32.1606 115.865 32.4656 115.748C32.7963 115.626 33.2331 115.464 33.7611 115.268C34.8577 114.869 36.3762 114.328 38.0577 113.739C39.7375 113.151 41.2619 112.627 42.3682 112.254C42.9031 112.078 43.3453 111.931 43.6803 111.821C43.9912 111.722 44.1654 111.672 44.1686 111.682Z" fill="#E0E0E0"/>
<path d="M60.0188 103.354C60.0332 103.394 53.5771 105.692 45.6014 108.485C37.6225 111.279 31.145 113.51 31.1305 113.469C31.1166 113.429 37.5706 111.131 45.5494 108.338C53.5257 105.545 60.0048 103.313 60.0188 103.354Z" fill="#E0E0E0"/>
<path d="M31.1832 129.206L28.5653 130.122C27.6102 130.457 26.565 129.954 26.2305 128.998L25.314 126.38C24.9795 125.425 25.4823 124.38 26.4374 124.046L29.0552 123.129C30.0104 122.794 31.0561 123.298 31.3906 124.253L32.3072 126.871C32.6416 127.826 32.1383 128.871 31.1832 129.206Z" fill="#EBEBEB"/>
<path d="M28.7361 127.635C28.735 127.636 28.7334 127.636 28.7313 127.637C28.6916 127.649 28.6476 127.645 28.6112 127.623L27.4127 126.929C27.3409 126.887 27.3168 126.795 27.358 126.724C27.3998 126.652 27.4915 126.627 27.5633 126.669L28.6203 127.281L29.8863 124.574C29.9212 124.499 30.0107 124.466 30.0857 124.501C30.1608 124.537 30.1929 124.626 30.1581 124.701L28.8224 127.557C28.8052 127.594 28.7741 127.622 28.7361 127.635Z" fill="white"/>
<path d="M63.0642 112.05C63.0781 112.091 56.6225 114.389 48.6469 117.182C40.6674 119.976 34.1899 122.207 34.1759 122.166C34.162 122.125 40.616 119.828 48.5949 117.034C56.5711 114.241 63.0502 112.009 63.0642 112.05Z" fill="#E0E0E0"/>
<path d="M47.9036 122.348C47.9073 122.359 47.7401 122.427 47.4351 122.544C47.1044 122.667 46.6676 122.828 46.1391 123.024C45.043 123.423 43.5245 123.965 41.8441 124.553C40.1632 125.142 38.6388 125.666 37.5325 126.038C36.9981 126.215 36.5554 126.361 36.2204 126.472C35.9095 126.571 35.7359 126.621 35.7321 126.61C35.7289 126.6 35.8956 126.531 36.2006 126.414C36.5313 126.291 36.9681 126.13 37.4961 125.934C38.5927 125.535 40.1112 124.994 41.7927 124.405C43.4725 123.817 44.9969 123.292 46.1032 122.92C46.6381 122.744 47.0803 122.598 47.4153 122.487C47.7262 122.388 47.9004 122.338 47.9036 122.348Z" fill="#E0E0E0"/>
<path d="M63.7538 114.02C63.7682 114.06 57.3121 116.358 49.3364 119.151C41.3575 121.945 34.88 124.176 34.8655 124.136C34.8516 124.095 41.3055 121.798 49.2844 119.003C57.2607 116.211 63.7398 113.979 63.7538 114.02Z" fill="#E0E0E0"/>
<path d="M34.9181 139.872L32.3003 140.788C31.3452 141.123 30.3 140.62 29.9655 139.664L29.0489 137.046C28.7145 136.091 29.2172 135.046 30.1724 134.712L32.7902 133.795C33.7454 133.461 34.7911 133.964 35.1256 134.919L36.0421 137.537C36.3766 138.491 35.8733 139.537 34.9181 139.872Z" fill="#EBEBEB"/>
<path d="M32.4713 138.301C32.4697 138.302 32.4681 138.302 32.4665 138.303C32.4263 138.315 32.3823 138.311 32.3464 138.29L31.1474 137.595C31.0756 137.553 31.0515 137.461 31.0933 137.39C31.1345 137.318 31.2262 137.293 31.298 137.335L32.355 137.948L33.6216 135.24C33.6564 135.165 33.7454 135.132 33.8204 135.167C33.8955 135.203 33.9282 135.292 33.8928 135.367L32.5576 138.223C32.5405 138.26 32.5094 138.288 32.4713 138.301Z" fill="white"/>
<path d="M66.7992 122.716C66.8136 122.757 60.3575 125.055 52.3818 127.847C44.4024 130.641 37.9248 132.873 37.9109 132.832C37.8964 132.791 44.351 130.494 52.3298 127.7C60.3061 124.907 66.7852 122.675 66.7992 122.716Z" fill="#E0E0E0"/>
<path d="M51.6386 133.014C51.6423 133.025 51.4751 133.093 51.1701 133.21C50.8394 133.333 50.4026 133.494 49.8741 133.691C48.7779 134.089 47.2595 134.631 45.5791 135.219C43.8982 135.808 42.3738 136.332 41.2675 136.704C40.7326 136.881 40.2904 137.027 39.9554 137.138C39.6445 137.237 39.4708 137.287 39.4671 137.276C39.4639 137.266 39.6306 137.197 39.9356 137.08C40.2663 136.957 40.7031 136.796 41.2311 136.6C42.3277 136.201 43.8462 135.66 45.5276 135.071C47.2075 134.483 48.7318 133.959 49.8382 133.586C50.3731 133.41 50.8153 133.264 51.1503 133.153C51.4612 133.054 51.6354 133.004 51.6386 133.014Z" fill="#E0E0E0"/>
<path d="M67.4887 124.686C67.5032 124.726 61.0471 127.024 53.0714 129.817C45.0925 132.611 38.615 134.842 38.6005 134.802C38.5866 134.761 45.0411 132.464 53.0194 129.67C60.9956 126.877 67.4748 124.645 67.4887 124.686Z" fill="#E0E0E0"/>
<path d="M38.6531 150.538L36.0353 151.454C35.0802 151.789 34.035 151.286 33.7005 150.33L32.7839 147.712C32.4495 146.757 32.9522 145.712 33.9074 145.378L36.5252 144.461C37.4804 144.127 38.5261 144.63 38.8606 145.585L39.7771 148.203C40.1116 149.158 39.6083 150.203 38.6531 150.538Z" fill="#EBEBEB"/>
<path d="M36.206 148.967C36.2044 148.968 36.2034 148.968 36.2012 148.969C36.1616 148.981 36.1176 148.977 36.0812 148.956L34.8827 148.261C34.8108 148.219 34.7867 148.127 34.828 148.056C34.8693 147.984 34.9615 147.96 35.0333 148.001L36.0903 148.614L37.3563 145.906C37.3911 145.831 37.4807 145.799 37.5557 145.833C37.6307 145.869 37.6629 145.958 37.6281 146.033L36.2923 148.889C36.2752 148.926 36.2441 148.954 36.206 148.967Z" fill="white"/>
<path d="M70.5342 133.382C70.5481 133.423 64.0925 135.72 56.1168 138.513C48.1374 141.307 41.6598 143.539 41.6459 143.498C41.6314 143.457 48.0859 141.16 56.0648 138.366C64.041 135.573 70.5197 133.341 70.5342 133.382Z" fill="#E0E0E0"/>
<path d="M55.3736 143.68C55.3773 143.691 55.2101 143.76 54.9051 143.876C54.5744 143.999 54.1375 144.16 53.609 144.357C52.5129 144.755 50.9944 145.297 49.3141 145.885C47.6332 146.473 46.1088 146.998 45.0025 147.371C44.4676 147.547 44.0254 147.693 43.6904 147.804C43.3795 147.903 43.2058 147.953 43.2021 147.942C43.1989 147.932 43.3656 147.863 43.6705 147.746C44.0012 147.624 44.4381 147.462 44.966 147.266C46.0627 146.867 47.5812 146.326 49.2626 145.737C50.9424 145.149 52.4668 144.625 53.5731 144.252C54.1081 144.076 54.5503 143.929 54.8853 143.819C55.1961 143.72 55.3703 143.67 55.3736 143.68Z" fill="#E0E0E0"/>
<path d="M71.2237 135.352C71.2382 135.393 64.7821 137.69 56.8064 140.483C48.8275 143.277 42.3499 145.508 42.3355 145.468C42.3215 145.427 48.7755 143.13 56.7544 140.336C64.7306 137.543 71.2098 135.311 71.2237 135.352Z" fill="#E0E0E0"/>
<path d="M13.9581 89.5382L15.2703 93.2854C16.0319 95.4594 18.4118 96.6054 20.5863 95.8437L48.0815 86.2156C50.256 85.4539 51.4015 83.0741 50.6398 80.8995L49.3304 77.1598L13.9581 89.5382Z" fill="#E0E0E0"/>
<path d="M29.9206 78.4908C28.6658 78.9303 28.0023 80.3089 28.4418 81.5636C28.8813 82.8184 30.2594 83.482 31.5147 83.0425C32.7689 82.6029 33.4325 81.2249 32.993 79.9696C32.554 78.7148 31.1754 78.0512 29.9206 78.4908ZM32.0099 84.458C29.9747 85.1709 27.7385 84.0952 27.0257 82.0594C26.3133 80.0237 27.3891 77.7875 29.4248 77.0746C31.4605 76.3623 33.6962 77.4386 34.4091 79.4738C35.1219 81.5095 34.0457 83.7452 32.0099 84.458Z" fill="#E0E0E0"/>
<path d="M53.9875 94.1792C54.0121 94.2505 46.7627 96.8539 37.7965 99.9937C28.8271 103.135 21.5386 105.622 21.5134 105.55C21.4887 105.48 28.737 102.877 37.7065 99.7359C46.6721 96.596 53.9628 94.1079 53.9875 94.1792Z" fill="#E0E0E0"/>
<path d="M44.7023 95.5124C44.7269 95.5837 41.5356 96.7661 37.5751 98.1533C33.6124 99.5404 30.3814 100.607 30.3562 100.536C30.331 100.465 33.5224 99.2826 37.4845 97.8949C41.4455 96.5083 44.6776 95.4411 44.7023 95.5124Z" fill="#E0E0E0"/>
<path d="M180.998 30.501L179.997 30.621C171.556 31.6298 164.269 37.0772 161.276 44.951C160.891 45.963 160.579 47.0033 160.348 48.0636C158.676 55.6994 161.187 64.1452 166.786 69.7169C170.079 72.9934 174.456 75.4794 176.329 79.7095C178.768 85.2153 176.084 91.4629 173.442 96.8272C170.801 102.192 168.132 108.45 170.595 113.946C172.137 117.388 175.47 119.773 179.001 121.156C188.349 124.818 199.401 122.166 207.133 115.919C214.864 109.673 219.554 100.314 221.792 90.6509C224.926 77.1131 223.419 62.2 216.035 50.2928C208.652 38.3861 195.02 30.0288 180.998 30.501Z" fill="#F5F5F5"/>
<path d="M33.1332 167.012L34.1361 167.12C42.5877 168.029 50.9107 164.355 55.5927 157.353C56.1946 156.453 56.7322 155.509 57.1964 154.527C60.5378 147.461 59.9841 138.667 55.7765 131.982C53.3024 128.051 49.5948 124.646 48.7174 120.104C47.5757 114.192 51.592 108.705 55.3692 104.069C59.1464 99.4341 63.1508 93.9331 61.9834 88.0253C61.2523 84.3253 58.5391 81.2535 55.4083 79.1138C47.1185 73.4488 35.7543 73.556 26.8186 77.9089C17.8829 82.2623 11.2135 90.3312 6.86654 99.2465C0.775968 111.737 -1.09896 126.608 3.42649 139.867C7.95194 153.127 19.3623 164.328 33.1332 167.012Z" fill="#F5F5F5"/>
<path d="M202.659 155.663C202.659 163.742 196.109 170.292 188.03 170.292C179.951 170.292 173.401 163.742 173.401 155.663C173.401 147.584 179.951 141.034 188.03 141.034C196.109 141.034 202.659 147.584 202.659 155.663Z" fill="#F5F5F5"/>
<path d="M187.551 204.124C189.476 203.13 191.742 203.001 193.88 203.354C195.028 203.544 196.225 203.888 197.006 204.75C197.788 205.613 197.935 207.13 197.038 207.871C196.504 208.312 195.76 208.379 195.066 208.372C193.394 208.352 191.537 208.057 190.201 209.064C189.438 209.639 188.931 210.593 188.019 210.876C187.127 211.152 186.121 210.626 185.647 209.821C185.174 209.016 185.159 208.009 185.379 207.102C185.379 207.102 185.611 205.124 187.551 204.124Z" fill="#9C1C21"/>
<path d="M183.14 195.609C184.317 197.291 186.605 196.734 187.666 195.709C188.727 194.682 189.175 193.194 189.583 191.776C190.516 188.536 191.456 185.136 190.763 181.836C190.555 180.85 190.186 179.865 189.493 179.134C188.8 178.402 187.734 177.966 186.759 178.223C185.606 178.529 184.888 179.658 184.37 180.733C182.847 183.892 182.04 187.395 182.029 190.902C182.023 192.539 182.216 194.258 183.14 195.609Z" fill="#9C1C21"/>
<path d="M179.907 198.022C181.186 196.505 181.428 194.292 180.859 192.392C180.291 190.492 179.006 188.876 177.525 187.556C175.789 186.009 173.748 184.804 171.554 184.033C170.691 183.729 169.78 183.49 168.869 183.577C167.958 183.664 167.041 184.129 166.616 184.94C165.988 186.138 166.59 187.592 167.242 188.778C168.39 190.867 169.702 192.866 171.164 194.75C172.339 196.265 173.686 197.76 175.476 198.445C177.268 199.129 179.129 199.049 180.078 197.807" fill="#9C1C21"/>
<path d="M183.061 220.97C183.083 220.972 183.118 220.7 183.167 220.207C183.221 219.651 183.289 218.952 183.37 218.122C183.467 217.245 183.595 216.201 183.839 215.064C184.082 213.93 184.462 212.7 184.95 211.454C185.456 210.216 186.073 209.089 186.793 208.188C187.509 207.284 188.341 206.629 189.124 206.251C189.903 205.866 190.602 205.71 191.086 205.64C191.573 205.59 191.846 205.552 191.847 205.53C191.847 205.508 191.573 205.505 191.072 205.519C190.576 205.551 189.848 205.677 189.026 206.051C188.202 206.416 187.319 207.082 186.568 208.005C185.812 208.924 185.172 210.075 184.657 211.336C184.161 212.605 183.786 213.846 183.554 215.005C183.323 216.161 183.217 217.217 183.147 218.101C183.082 218.987 183.056 219.704 183.045 220.2C183.033 220.695 183.039 220.969 183.061 220.97Z" fill="#263238"/>
<path d="M183.204 219.367C183.215 219.366 183.222 219.244 183.224 219.012C183.224 218.745 183.223 218.41 183.222 217.998C183.22 217.119 183.22 215.846 183.267 214.274C183.345 211.129 183.616 207.746 184.138 202.975C184.634 198.489 185.298 193.269 186 189.875C186.15 189.102 186.301 188.408 186.444 187.799C186.58 187.191 186.696 186.664 186.808 186.239C186.904 185.839 186.983 185.513 187.045 185.254C187.096 185.028 187.117 184.907 187.107 184.904C187.096 184.901 187.055 185.015 186.984 185.236C186.906 185.492 186.809 185.813 186.69 186.208C186.559 186.629 186.425 187.151 186.273 187.759C186.113 188.364 185.946 189.057 185.782 189.828C185.088 192.904 184.353 197.202 183.825 201.984C183.301 206.764 183.065 211.117 183.044 214.269C183.026 215.845 183.059 217.121 183.1 218.001C183.125 218.413 183.145 218.749 183.161 219.014C183.179 219.245 183.193 219.367 183.204 219.367Z" fill="#263238"/>
<path d="M183.225 210.971C183.247 210.971 183.243 210.594 183.217 209.912C183.179 209.232 183.085 208.248 182.894 207.043C182.691 205.842 182.406 204.414 181.961 202.864C181.767 202.155 181.313 200.456 180.213 197.917C178.763 194.478 176.793 191.667 175.08 189.925C174.678 189.463 174.23 189.129 173.872 188.803C173.687 188.646 173.523 188.49 173.356 188.366C173.188 188.25 173.032 188.142 172.888 188.043C172.324 187.657 172.008 187.454 171.996 187.472C171.945 187.541 173.259 188.314 174.918 190.079C176.571 191.84 178.485 194.633 179.923 198.043C180.725 199.893 181.284 201.542 181.681 202.943C182.14 204.479 182.444 205.892 182.674 207.081C182.893 208.275 183.019 209.248 183.096 209.922C183.159 210.598 183.204 210.972 183.225 210.971Z" fill="#263238"/>
<path d="M175.111 225.78L175.952 237.305H190.758L191.599 225.78H175.111Z" fill="#263238"/>
<path d="M173.681 225.78H193.366V221.238H173.681V225.78Z" fill="#263238"/>
<path d="M173.681 236.864V238.124H174.606H193.04V236.864H173.681Z" fill="#455A64"/>
<path d="M175.512 240.34L174.606 238.123H192.335L191.277 240.34H175.512Z" fill="#455A64"/>
<path d="M191.324 229.547C191.327 229.55 191.304 229.586 191.255 229.653C191.196 229.731 191.123 229.827 191.034 229.946C190.823 230.215 190.535 230.585 190.171 231.05L190.133 231.099L190.096 231.048C189.553 230.298 188.829 229.296 187.977 228.117H188.098C187.469 229.01 186.766 230.004 186.012 231.071L185.947 231.164L185.874 231.077C185.104 230.161 184.268 229.166 183.4 228.132L183.542 228.131C183.499 228.185 183.452 228.243 183.406 228.302C182.639 229.265 181.896 230.195 181.194 231.076L181.12 231.168L181.052 231.072C180.301 230.009 179.599 229.016 178.964 228.119L179.086 228.124C178.057 229.296 177.185 230.29 176.515 231.053L176.47 231.105L176.436 231.047C176.096 230.477 175.826 230.023 175.63 229.694C175.546 229.548 175.478 229.429 175.424 229.335C175.379 229.252 175.357 229.208 175.361 229.206C175.365 229.203 175.394 229.243 175.447 229.32C175.507 229.411 175.582 229.526 175.676 229.667C175.881 229.99 176.165 230.435 176.52 230.994L176.44 230.988C177.099 230.215 177.957 229.209 178.969 228.023L179.033 227.949L179.091 228.029C179.731 228.923 180.439 229.911 181.196 230.968L181.055 230.965C181.755 230.084 182.496 229.151 183.262 228.188C183.309 228.129 183.355 228.07 183.398 228.017L183.468 227.928L183.541 228.015C184.406 229.049 185.24 230.047 186.008 230.964L185.87 230.97C186.631 229.908 187.34 228.918 187.977 228.031L188.038 227.944L188.098 228.031C188.933 229.223 189.642 230.235 190.173 230.993L190.098 230.99C190.476 230.538 190.776 230.177 190.995 229.915C191.092 229.803 191.171 229.711 191.235 229.637C191.291 229.575 191.32 229.544 191.324 229.547Z" fill="#E0E0E0"/>
<path d="M191.805 225.704C191.805 225.755 188.095 225.797 183.52 225.797C178.943 225.797 175.234 225.755 175.234 225.704C175.234 225.654 178.943 225.612 183.52 225.612C188.095 225.612 191.805 225.654 191.805 225.704Z" fill="#455A64"/>
<path d="M192.553 238.248C192.553 238.298 188.521 238.34 183.548 238.34C178.575 238.34 174.544 238.298 174.544 238.248C174.544 238.197 178.575 238.155 183.548 238.155C188.521 238.155 192.553 238.197 192.553 238.248Z" fill="#263238"/>
<path d="M46.4996 201.479C46.4589 201.53 46.1212 201.326 45.745 201.025C45.3687 200.724 45.0959 200.439 45.1366 200.388C45.1773 200.338 45.515 200.541 45.8913 200.842C46.2676 201.143 46.5404 201.428 46.4996 201.479Z" fill="#263238"/>
<path d="M56.7675 186.132C56.8296 184.698 56.8698 183.227 56.4175 181.865C55.9645 180.504 54.9145 179.251 53.5091 178.96C51.9049 178.628 50.2615 179.641 49.3626 181.009C48.4637 182.379 48.155 184.042 47.8892 185.658C46.0598 196.796 45.3844 208.124 45.877 219.4L52.4409 220.321C55.324 208.543 56.2433 198.247 56.7675 186.132Z" fill="#455A64"/>
<path d="M52.598 178.909C52.6018 178.911 52.5916 178.946 52.568 179.014C52.5391 179.095 52.5031 179.192 52.4597 179.312C52.3525 179.589 52.2067 179.968 52.0224 180.445C51.9307 180.692 51.809 180.96 51.7115 181.265C51.6134 181.573 51.5067 181.904 51.3926 182.26C51.2778 182.617 51.1551 182.998 51.0249 183.401C50.9177 183.812 50.8046 184.247 50.6861 184.703C50.1908 186.522 49.7803 188.733 49.4179 191.199C49.0631 193.667 48.8299 196.401 48.6466 199.273C48.3111 205.025 48.2586 210.245 48.1106 214.02C48.0409 215.907 47.9761 217.435 47.9037 218.489C47.8694 219 47.8416 219.406 47.8217 219.702C47.8105 219.83 47.8019 219.933 47.7944 220.018C47.7869 220.088 47.781 220.125 47.7767 220.125C47.7729 220.125 47.7708 220.088 47.7703 220.016C47.7713 219.931 47.7729 219.827 47.7746 219.7C47.7837 219.402 47.7965 218.997 47.8126 218.485C47.8566 217.429 47.8962 215.902 47.945 214.014C48.0506 210.24 48.0763 205.02 48.4129 199.259C48.5962 196.382 48.8364 193.642 49.2041 191.168C49.5793 188.697 50.0081 186.481 50.5258 184.66C50.6502 184.205 50.7692 183.77 50.8817 183.359C51.0184 182.956 51.1471 182.575 51.2687 182.219C51.3893 181.865 51.5019 181.533 51.6064 181.227C51.7109 180.923 51.839 180.658 51.9377 180.412C52.1397 179.94 52.2989 179.567 52.4163 179.293C52.4688 179.177 52.5112 179.082 52.5466 179.005C52.5766 178.94 52.5943 178.908 52.598 178.909Z" fill="#263238"/>
<path d="M53.206 178.913C53.206 178.913 53.6085 179.326 54.0078 180.271C54.4211 181.208 54.68 182.698 54.6065 184.517C54.4323 188.144 54.1075 193.142 53.6755 198.66C53.2414 204.179 52.7606 209.167 52.373 212.774C52.1795 214.577 52.0118 216.035 51.8885 217.042C51.8258 217.529 51.7759 217.915 51.7395 218.2C51.7213 218.32 51.7068 218.419 51.695 218.5C51.6837 218.568 51.6757 218.602 51.6719 218.602C51.6677 218.601 51.6677 218.566 51.6709 218.498C51.6768 218.415 51.6837 218.316 51.6923 218.195C51.7186 217.909 51.7534 217.521 51.7974 217.031C51.8965 216.001 52.0364 214.545 52.2085 212.757C52.5531 209.147 53.0077 204.158 53.4418 198.641C53.8733 193.127 54.2244 188.127 54.4409 184.511C54.5342 182.705 54.3042 181.24 53.9231 180.305C53.556 179.364 53.177 178.93 53.206 178.913Z" fill="#263238"/>
<path d="M57.7567 195.901C57.7348 195.961 57.1779 195.818 56.5127 195.579C55.8475 195.34 55.326 195.097 55.348 195.037C55.3694 194.975 55.9263 195.12 56.592 195.358C57.2572 195.597 57.7787 195.84 57.7567 195.901Z" fill="#263238"/>
<path d="M58.5473 189.211C58.5736 189.27 58.044 189.565 57.3639 189.87C56.6837 190.174 56.1112 190.372 56.085 190.313C56.0582 190.254 56.5883 189.96 57.2684 189.655C57.9481 189.351 58.5211 189.152 58.5473 189.211Z" fill="#263238"/>
<path d="M58.1375 183.751C58.1333 183.816 57.6948 183.839 57.1593 183.802C56.6228 183.764 56.1924 183.682 56.1967 183.617C56.201 183.553 56.6394 183.531 57.1754 183.568C57.7114 183.605 58.1418 183.687 58.1375 183.751Z" fill="#263238"/>
<path d="M51.364 180.253C51.3093 180.288 51.022 179.93 50.7224 179.454C50.4227 178.977 50.2239 178.563 50.2791 178.528C50.3338 178.494 50.6211 178.852 50.9207 179.328C51.2203 179.805 51.4192 180.219 51.364 180.253Z" fill="#263238"/>
<path d="M49.126 183.555C49.1244 183.619 48.7069 183.663 48.1939 183.652C47.6799 183.641 47.265 183.58 47.2661 183.515C47.2677 183.45 47.6853 183.407 48.1988 183.417C48.7122 183.429 49.1271 183.49 49.126 183.555Z" fill="#263238"/>
<path d="M47.5189 190.16C47.4947 190.22 47.0552 190.1 46.538 189.891C46.0202 189.682 45.6203 189.464 45.6445 189.405C45.6686 189.345 46.1081 189.465 46.6253 189.674C47.1431 189.882 47.543 190.1 47.5189 190.16Z" fill="#263238"/>
<path d="M47.3471 195.716C47.3605 195.779 46.9863 195.911 46.512 196.01C46.0376 196.11 45.642 196.14 45.6286 196.076C45.6152 196.013 45.9894 195.881 46.4637 195.781C46.9381 195.682 47.3337 195.652 47.3471 195.716Z" fill="#263238"/>
<path d="M46.591 204.803C46.6023 204.866 46.2056 204.991 45.7045 205.081C45.2033 205.17 44.7879 205.192 44.7761 205.127C44.7649 205.064 45.1615 204.939 45.6632 204.85C46.1644 204.76 46.5798 204.739 46.591 204.803Z" fill="#263238"/>
<path d="M46.0888 209.819C46.1188 209.875 45.7875 210.11 45.3496 210.342C44.9107 210.574 44.5306 210.716 44.5006 210.659C44.4701 210.601 44.8013 210.366 45.2398 210.135C45.6782 209.903 46.0582 209.761 46.0888 209.819Z" fill="#263238"/>
<path d="M50.1847 215.512C50.1289 215.544 49.84 215.145 49.5404 214.623C49.2408 214.099 49.0435 213.648 49.0998 213.617C49.1555 213.584 49.4439 213.982 49.7441 214.506C50.0437 215.03 50.2409 215.479 50.1847 215.512Z" fill="#263238"/>
<path d="M51.3667 206.05C51.4117 206.097 51.0906 206.486 50.649 206.918C50.2073 207.352 49.8128 207.665 49.7672 207.619C49.7217 207.573 50.0433 207.184 50.4849 206.751C50.9266 206.318 51.3216 206.004 51.3667 206.05Z" fill="#263238"/>
<path d="M51.1052 201.086C51.0575 201.131 50.7595 200.886 50.4395 200.54C50.119 200.195 49.8981 199.878 49.9453 199.835C49.993 199.791 50.291 200.035 50.6116 200.381C50.9316 200.726 51.1524 201.042 51.1052 201.086Z" fill="#263238"/>
<path d="M51.9175 194.744C51.9657 194.787 51.6977 195.164 51.3193 195.587C50.9409 196.009 50.5946 196.317 50.5464 196.273C50.4981 196.23 50.7661 195.853 51.1446 195.43C51.523 195.008 51.8692 194.7 51.9175 194.744Z" fill="#263238"/>
<path d="M52.375 190.14C52.33 190.186 51.9559 189.892 51.5405 189.484C51.1245 189.076 50.8244 188.707 50.8699 188.661C50.9155 188.615 51.2891 188.908 51.705 189.317C52.1204 189.726 52.4206 190.094 52.375 190.14Z" fill="#263238"/>
<path d="M53.2737 183.917C53.3295 183.951 53.1413 184.368 52.8546 184.849C52.5673 185.33 52.2896 185.693 52.2344 185.66C52.1787 185.627 52.3663 185.21 52.653 184.729C52.9403 184.248 53.218 183.884 53.2737 183.917Z" fill="#263238"/>
<path d="M54.9642 178.151C55.021 178.182 54.8549 178.599 54.5933 179.083C54.3317 179.568 54.0734 179.935 54.0166 179.904C53.9592 179.874 54.1254 179.456 54.3869 178.972C54.6491 178.488 54.9074 178.12 54.9642 178.151Z" fill="#263238"/>
<path d="M56.8821 180.77C56.9099 180.828 56.6478 181.012 56.2957 181.181C55.9441 181.349 55.6359 181.438 55.608 181.38C55.5801 181.321 55.8428 181.138 56.1944 180.969C56.5465 180.801 56.8542 180.712 56.8821 180.77Z" fill="#263238"/>
<path d="M56.9281 201.48C56.9158 201.54 56.3203 201.459 55.6444 201.169C54.9669 200.882 54.4963 200.508 54.5311 200.457C54.5676 200.4 55.0805 200.675 55.736 200.953C56.3905 201.234 56.9436 201.414 56.9281 201.48Z" fill="#263238"/>
<path d="M56.1442 205.866C56.1565 205.93 55.761 206.06 55.2614 206.156C54.7613 206.253 54.3459 206.279 54.3341 206.215C54.3218 206.152 54.7168 206.022 55.2169 205.926C55.717 205.83 56.1319 205.803 56.1442 205.866Z" fill="#263238"/>
<path d="M55.1809 213.387C55.1428 213.436 54.6411 213.093 54.1812 212.509C53.7181 211.929 53.4984 211.362 53.5547 211.337C53.6152 211.306 53.9191 211.806 54.3651 212.364C54.8073 212.925 55.2248 213.335 55.1809 213.387Z" fill="#263238"/>
<path d="M44.6303 216.827C44.5879 216.778 44.8549 216.481 45.2258 216.163C45.5967 215.846 45.9317 215.628 45.974 215.677C46.0158 215.727 45.7494 216.024 45.3785 216.341C45.0076 216.659 44.6726 216.876 44.6303 216.827Z" fill="#263238"/>
<path d="M41.5969 200.411C41.1703 199.078 40.3684 197.522 38.9678 197.502C38.1365 197.491 37.3888 198.087 36.998 198.82C36.6073 199.554 36.4417 200.404 36.4658 201.235C36.6266 206.723 37.5769 213.001 39.476 218.718H44.6012C44.5353 212.367 43.5335 206.461 41.5969 200.411Z" fill="#455A64"/>
<path d="M32.3287 192.014C31.6126 189.149 29.4755 187.602 26.9933 187.458C24.7282 187.855 23.8497 190.085 23.5806 192.369C23.3115 194.653 24.0207 196.926 24.7212 199.117C26.9697 206.15 29.2183 213.184 31.4673 220.217C33.592 219.985 35.7173 219.753 37.843 219.52C35.8245 210.097 34.6656 201.363 32.3287 192.014Z" fill="#455A64"/>
<path d="M38.9674 197.502C38.9899 197.52 38.7573 197.733 38.5333 198.228C38.3114 198.725 38.2047 199.519 38.2937 200.494C38.3928 201.467 38.5043 202.641 38.6673 203.926C38.8345 205.214 39.0666 206.624 39.3544 208.096C39.9338 211.04 40.5867 213.682 41.001 215.608C41.2111 216.57 41.3692 217.351 41.4695 217.893C41.5123 218.142 41.5472 218.349 41.5767 218.519C41.5986 218.662 41.6061 218.738 41.5981 218.739C41.5906 218.742 41.567 218.668 41.53 218.528C41.4898 218.361 41.44 218.157 41.38 217.912C41.2443 217.341 41.0616 216.575 40.8397 215.645C40.3841 213.73 39.7055 211.094 39.1245 208.141C38.8356 206.664 38.6094 205.248 38.4534 203.953C38.3714 203.305 38.3172 202.688 38.2647 202.111C38.2181 201.536 38.1554 200.999 38.128 200.505C38.0584 199.516 38.194 198.691 38.4502 198.189C38.7091 197.689 38.9674 197.502 38.9674 197.502Z" fill="#263238"/>
<path d="M27.0857 187.276C27.1076 187.296 26.7464 187.6 26.3154 188.312C25.8856 189.016 25.4289 190.164 25.3447 191.648C25.2477 193.132 25.5779 194.892 26.1337 196.781C26.6939 198.678 27.3081 200.76 27.9529 202.946C29.2243 207.316 30.3751 211.271 31.2166 214.163C31.6181 215.583 31.945 216.74 32.1793 217.569C32.2833 217.955 32.3669 218.264 32.4301 218.499C32.4848 218.712 32.51 218.825 32.5019 218.827C32.4939 218.83 32.4542 218.721 32.3846 218.512C32.3106 218.281 32.2136 217.976 32.0919 217.595C31.84 216.771 31.4884 215.621 31.0574 214.21C30.1988 211.322 29.0249 207.375 27.7278 203.012C27.0889 200.823 26.4805 198.74 25.9258 196.84C25.379 194.94 25.0585 193.148 25.1791 191.637C25.2869 190.126 25.7768 188.963 26.2377 188.264C26.7003 187.555 27.0857 187.276 27.0857 187.276Z" fill="#263238"/>
<path d="M36.4523 218.84C36.4448 218.842 36.3955 218.737 36.3081 218.534C36.2245 218.329 36.0889 218.032 35.9452 217.637C35.6413 216.854 35.2517 215.7 34.8486 214.251C34.4434 212.803 34.0451 211.057 33.6608 209.109C33.291 207.157 32.8858 205.016 32.4596 202.767C32.0164 200.523 31.5227 198.399 30.9497 196.504C30.3778 194.609 29.7373 192.941 29.0909 191.591C28.4477 190.24 27.8334 189.193 27.3725 188.494C27.1527 188.137 26.9538 187.879 26.8349 187.693C26.7121 187.509 26.6499 187.41 26.6569 187.405C26.6633 187.4 26.7373 187.49 26.8729 187.665C27.0042 187.842 27.2165 188.092 27.448 188.443C27.9342 189.129 28.5742 190.169 29.2404 191.519C29.9093 192.868 30.5708 194.539 31.1566 196.441C31.7435 198.342 32.2452 200.472 32.6896 202.722C33.1093 204.972 33.5086 207.115 33.8725 209.068C34.2451 211.015 34.6256 212.759 35.0089 214.208C35.3899 215.657 35.7539 216.815 36.031 217.606C36.1613 218.004 36.2829 218.307 36.3526 218.516C36.4255 218.725 36.4598 218.836 36.4523 218.84Z" fill="#263238"/>
<path d="M24.8349 198.064C24.8504 198.127 24.5036 198.265 24.0603 198.373C23.6176 198.48 23.2456 198.517 23.2306 198.454C23.2151 198.391 23.5619 198.253 24.0051 198.145C24.4479 198.037 24.8198 198.002 24.8349 198.064Z" fill="#263238"/>
<path d="M24.1594 193.713C24.1562 193.779 23.6743 193.806 23.0842 193.829C22.494 193.852 22.0116 193.863 22.003 193.797C21.9945 193.734 22.4726 193.618 23.075 193.595C23.6775 193.57 24.1631 193.65 24.1594 193.713Z" fill="#263238"/>
<path d="M24.8777 189.739C24.8359 189.788 24.4897 189.563 24.1043 189.237C23.7189 188.909 23.4402 188.604 23.4825 188.555C23.5243 188.506 23.8706 188.73 24.256 189.058C24.6414 189.384 24.9195 189.689 24.8777 189.739Z" fill="#263238"/>
<path d="M26.8226 186.06C26.8869 186.074 26.8692 186.384 26.8596 186.759C26.8478 187.134 26.8473 187.444 26.7819 187.455C26.7202 187.467 26.613 187.153 26.6254 186.752C26.6361 186.351 26.761 186.045 26.8226 186.06Z" fill="#263238"/>
<path d="M30.7973 187.793C30.8504 187.83 30.6944 188.145 30.4495 188.495C30.204 188.845 29.9622 189.099 29.9092 189.062C29.8561 189.025 30.0121 188.711 30.257 188.361C30.5025 188.01 30.7443 187.756 30.7973 187.793Z" fill="#263238"/>
<path d="M33.3763 192.274C33.4004 192.333 33.0708 192.525 32.6393 192.701C32.2073 192.877 31.8374 192.971 31.8128 192.911C31.7886 192.851 32.1188 192.66 32.5503 192.484C32.9818 192.308 33.3516 192.214 33.3763 192.274Z" fill="#263238"/>
<path d="M34.9411 196.884C34.9673 196.94 34.5299 197.19 33.9302 197.325C33.3309 197.462 32.8287 197.426 32.8281 197.363C32.8249 197.296 33.3036 197.229 33.8782 197.096C34.4538 196.968 34.9148 196.822 34.9411 196.884Z" fill="#263238"/>
<path d="M27.7572 195.574C27.695 195.555 27.7401 195.237 27.8574 194.863C27.9743 194.49 28.119 194.202 28.1812 194.222C28.2428 194.241 28.1978 194.559 28.081 194.933C27.9641 195.307 27.8189 195.594 27.7572 195.574Z" fill="#263238"/>
<path d="M28.7594 201.362C28.6999 201.336 28.829 200.907 29.0477 200.404C29.2664 199.9 29.4921 199.513 29.551 199.539C29.6105 199.565 29.4814 199.994 29.2627 200.497C29.044 201.001 28.8189 201.388 28.7594 201.362Z" fill="#263238"/>
<path d="M26.2838 202.947C26.2591 203.007 25.8544 202.897 25.3656 202.745C24.8768 202.592 24.4823 202.452 24.4962 202.387C24.5096 202.325 24.9357 202.364 25.4353 202.521C25.9359 202.677 26.3084 202.888 26.2838 202.947Z" fill="#263238"/>
<path d="M27.7109 207.666C27.7484 207.718 27.4756 207.978 27.1009 208.245C26.7263 208.512 26.3923 208.686 26.3543 208.634C26.3168 208.581 26.5901 208.321 26.9642 208.054C27.3394 207.787 27.6734 207.613 27.7109 207.666Z" fill="#263238"/>
<path d="M28.8553 212.37C28.8709 212.434 28.5327 212.57 28.1006 212.675C27.6686 212.78 27.3063 212.814 27.2913 212.751C27.2757 212.688 27.6134 212.552 28.0454 212.447C28.4775 212.341 28.8403 212.308 28.8553 212.37Z" fill="#263238"/>
<path d="M35.067 200.814C35.0997 200.869 34.8108 201.099 34.39 201.257C33.9698 201.416 33.6005 201.433 33.5892 201.371C33.5764 201.306 33.9076 201.189 34.3075 201.037C34.7073 200.888 35.0337 200.758 35.067 200.814Z" fill="#263238"/>
<path d="M35.9545 208.134C35.9272 208.192 35.5831 208.089 35.1859 207.902C34.7887 207.715 34.4897 207.516 34.517 207.457C34.5449 207.399 34.889 207.503 35.2856 207.69C35.6828 207.876 35.9824 208.076 35.9545 208.134Z" fill="#263238"/>
<path d="M37.5214 213.372C37.4978 213.432 37.0433 213.311 36.5062 213.1C35.9691 212.889 35.5532 212.67 35.5768 212.61C35.6003 212.549 36.0549 212.671 36.5919 212.881C37.1285 213.092 37.545 213.312 37.5214 213.372Z" fill="#263238"/>
<path d="M29.1064 217.475C29.0742 217.416 29.4928 217.135 29.9757 216.753C30.4603 216.374 30.8323 216.035 30.8821 216.08C30.9293 216.121 30.6238 216.544 30.1205 216.938C29.6188 217.334 29.1348 217.531 29.1064 217.475Z" fill="#263238"/>
<path d="M33.248 214.812C33.1816 214.82 33.0915 214.468 32.9318 214.059C32.7747 213.648 32.6048 213.327 32.6595 213.288C32.7088 213.25 32.9806 213.531 33.1499 213.974C33.322 214.416 33.3102 214.807 33.248 214.812Z" fill="#263238"/>
<path d="M32.1501 208.512C32.1121 208.565 31.8446 208.437 31.5525 208.228C31.2604 208.018 31.0545 207.805 31.0921 207.753C31.1296 207.7 31.397 207.828 31.6897 208.037C31.9818 208.247 32.1876 208.46 32.1501 208.512Z" fill="#263238"/>
<path d="M41.8042 198.64C41.8422 198.693 41.5818 198.95 41.2221 199.215C40.8624 199.481 40.5392 199.654 40.5006 199.602C40.4626 199.549 40.7231 199.292 41.0827 199.027C41.4429 198.761 41.7656 198.588 41.8042 198.64Z" fill="#263238"/>
<path d="M43.2591 202.618C43.265 202.68 42.8571 202.766 42.3527 202.711C41.8473 202.657 41.4673 202.487 41.486 202.427C41.5053 202.363 41.8971 202.427 42.3774 202.478C42.8576 202.531 43.2543 202.552 43.2591 202.618Z" fill="#263238"/>
<path d="M37.005 203.51C37.0189 203.572 36.6411 203.707 36.1533 203.739C35.665 203.772 35.2726 203.688 35.278 203.625C35.2834 203.559 35.6682 203.537 36.1372 203.505C36.6062 203.475 36.9916 203.445 37.005 203.51Z" fill="#263238"/>
<path d="M37.5424 199.749C37.5376 199.811 37.156 199.822 36.7384 199.628C36.3193 199.437 36.0786 199.141 36.1226 199.097C36.1676 199.047 36.4549 199.243 36.8365 199.415C37.2155 199.592 37.551 199.683 37.5424 199.749Z" fill="#263238"/>
<path d="M43.7959 206.888C43.7616 206.943 43.3709 206.759 42.9228 206.477C42.4752 206.195 42.1402 205.922 42.1745 205.868C42.2094 205.813 42.6001 205.997 43.0477 206.278C43.4952 206.56 43.8302 206.833 43.7959 206.888Z" fill="#263238"/>
<path d="M59.056 223.964H25.6895V218.05H59.056V223.964Z" fill="#9C1C21"/>
<path d="M28.1812 222.79L32.2387 240.463H52.1248L56.5645 222.79H28.1812Z" fill="#9C1C21"/>
<path d="M59.0376 223.971C59.0376 224.036 51.5111 224.089 42.2292 224.089C32.9441 224.089 25.4192 224.036 25.4192 223.971C25.4192 223.906 32.9441 223.854 42.2292 223.854C51.5111 223.854 59.0376 223.906 59.0376 223.971Z" fill="#263238"/>
<path d="M40.4814 203.639C40.4262 203.673 40.1984 203.407 39.9722 203.046C39.7455 202.683 39.6067 202.362 39.6619 202.328C39.7166 202.293 39.9449 202.559 40.1711 202.921C40.3973 203.284 40.5366 203.605 40.4814 203.639Z" fill="#263238"/>
<path d="M40.4937 208.397C40.4321 208.377 40.5103 207.975 40.6685 207.499C40.826 207.023 41.004 206.655 41.0656 206.675C41.1267 206.696 41.049 207.098 40.8909 207.573C40.7328 208.049 40.5548 208.417 40.4937 208.397Z" fill="#263238"/>
<path d="M42.1222 213.392C42.0638 213.421 41.8145 213.021 41.5653 212.501C41.3166 211.98 41.1617 211.535 41.2201 211.507C41.2785 211.48 41.5278 211.878 41.777 212.399C42.0262 212.919 42.1806 213.364 42.1222 213.392Z" fill="#263238"/>
<path d="M38.5982 217.411C38.5494 217.369 38.7483 217.059 39.0431 216.72C39.3373 216.38 39.6155 216.14 39.6648 216.183C39.7136 216.225 39.5147 216.534 39.2199 216.873C38.9257 217.213 38.647 217.453 38.5982 217.411Z" fill="#263238"/>
<path d="M37.8585 210.114C37.8472 210.178 37.5262 210.174 37.1413 210.107C36.7565 210.039 36.4536 209.932 36.4649 209.868C36.4762 209.805 36.7972 209.808 37.1821 209.876C37.5669 209.944 37.8698 210.051 37.8585 210.114Z" fill="#263238"/>
<path d="M153.943 240.505H74.8167V177.406H153.943V240.505Z" fill="#E0E0E0"/>
<g opacity="0.300003">
<path d="M80.5809 177.539C89.8966 180.863 100.172 181.572 110.169 181.759C112.239 181.797 114.337 181.794 116.34 182.316C118.343 182.838 120.282 183.962 121.312 185.759C122.431 187.715 122.312 190.164 121.677 192.326C121.041 194.489 119.939 196.483 119.142 198.591C117.745 202.292 117.311 206.351 117.894 210.263C118.142 211.925 118.587 213.599 119.548 214.978C120.508 216.357 122.056 217.407 123.736 217.432C126.743 217.475 128.803 214.518 130.294 211.907C136.409 201.195 143.024 189.016 146.937 177.318L80.5809 177.539Z" fill="black"/>
</g>
<path d="M101.777 240.168C101.7 240.168 101.637 226.182 101.637 208.934C101.637 191.68 101.7 177.698 101.777 177.698C101.854 177.698 101.916 191.68 101.916 208.934C101.916 226.182 101.854 240.168 101.777 240.168Z" fill="#455A64"/>
<path d="M134.2 130.776C133.965 129.203 129.262 124 129.262 124C129.262 124 126.91 114.562 126.205 111.78C126.029 111.084 125.651 110.294 125.183 109.5C123.541 106.716 121.135 104.462 118.318 102.878L111.809 99.2178L110.252 95.7526L94.614 87.7185L90.3748 95.1984C90.3748 95.1984 80.0782 98.4706 78.7157 100.808C77.3527 103.146 79.3916 134.468 79.3916 134.468C79.3916 134.468 75.0816 152.544 74.1731 156.285C73.2646 160.024 74.4658 164.488 74.4658 164.488L82.1343 154.863C84.5168 151.872 89.7498 150.498 93.5072 150.551L125.619 150.693L124.342 141.698L150.307 146.748C150.307 146.748 154.775 138.036 155.127 137.861C155.48 137.685 134.2 130.776 134.2 130.776Z" fill="#9C1C21"/>
<path d="M93.9463 98.1385C93.7212 97.9091 95.7612 104.799 98.3222 111.816C99.7014 115.596 100.393 119.606 100.393 123.644V139.092V149.049L115.79 148.004L113.489 131.269C113.489 131.269 111.612 120.473 111.087 116.367C110.605 112.607 108.952 102.413 108.952 102.413C108.952 102.413 100.393 104.705 93.9463 98.1385Z" fill="white"/>
<path d="M128.113 137.089C128.095 137.087 128.09 136.949 128.112 136.701C128.133 136.453 128.192 136.096 128.314 135.666C128.551 134.81 129.1 133.654 130.073 132.678C131.048 131.702 132.202 131.152 133.058 130.913C133.488 130.789 133.845 130.73 134.092 130.708C134.34 130.685 134.478 130.69 134.48 130.709C134.487 130.756 133.941 130.814 133.118 131.1C132.3 131.381 131.206 131.939 130.271 132.876C129.336 133.812 128.781 134.907 128.502 135.726C128.217 136.549 128.16 137.095 128.113 137.089Z" fill="#263238"/>
<path d="M128.906 130.994C128.872 130.933 129.884 130.421 131.257 130.312C132.628 130.194 133.71 130.535 133.687 130.6C133.671 130.683 132.6 130.476 131.28 130.591C129.958 130.693 128.936 131.072 128.906 130.994Z" fill="#263238"/>
<g opacity="0.300003">
<path d="M77.8389 144.856L76.5027 146.371C77.9349 148.036 79.7953 149.433 81.9275 149.959C84.0598 150.483 86.2761 150.545 88.4721 150.551C89.3619 150.553 90.2645 150.545 91.1189 150.298C91.9899 150.048 92.8024 149.553 93.7072 149.499C94.3134 149.463 94.91 149.628 95.5039 149.756C96.0967 149.883 96.7249 149.971 97.3027 149.784C97.8805 149.598 98.386 149.063 98.35 148.457C91.6731 146.508 84.7807 145.299 77.8389 144.856Z" fill="black"/>
</g>
<path d="M121.792 146.799L118.014 142.787L110.244 140.82C110.244 140.82 103.122 142.954 102.952 142.947C102.782 142.941 96.7545 141.301 96.7545 141.301L94.6481 149.027L105.503 149.77L117.897 149.274C117.897 149.274 118.543 148.672 118.161 148.261C117.778 147.849 120.233 148.956 120.522 148.97C120.805 148.983 121.372 149.205 121.755 148.742C122.015 148.426 122.369 147.413 121.792 146.799Z" fill="#FFBE9D"/>
<path d="M118.161 148.261C118.146 148.299 117.679 148.149 116.926 147.91C116.173 147.67 115.131 147.351 113.965 147.052C112.798 146.754 111.73 146.533 110.955 146.377C110.18 146.222 109.699 146.126 109.705 146.085C109.71 146.049 110.201 146.077 110.988 146.183C111.775 146.289 112.857 146.482 114.034 146.781C115.209 147.083 116.251 147.435 116.991 147.723C117.732 148.012 118.174 148.227 118.161 148.261Z" fill="#EB996E"/>
<path d="M121.792 146.799C121.777 146.838 121.128 146.596 120.068 146.243C119.01 145.886 117.532 145.449 115.888 144.99C114.245 144.502 112.783 144.014 111.675 143.949C110.57 143.856 109.896 144.074 109.885 144.019C109.881 144.004 110.043 143.937 110.351 143.863C110.658 143.788 111.118 143.732 111.686 143.752C112.831 143.768 114.339 144.239 115.964 144.721C117.609 145.181 119.088 145.65 120.134 146.057C120.659 146.257 121.076 146.436 121.361 146.567C121.647 146.699 121.8 146.782 121.792 146.799Z" fill="#EB996E"/>
<path d="M78.7157 100.808C78.7157 100.808 73.1134 104.704 71.7503 110.314C70.3878 115.924 64.4822 138.831 65.6941 142.259C66.9049 145.688 90.4605 149.049 90.4605 149.049L93.2515 137.273L81.2895 134C81.2895 134 81.4407 123.092 81.5924 118.573C81.7435 114.054 78.7157 100.808 78.7157 100.808Z" fill="#9C1C21"/>
<path d="M93.0948 139.029L96.9497 139.979L94.6309 148.867L90.843 148.261L93.0948 139.029Z" fill="white"/>
<path d="M65.6052 141.047C65.625 141.047 65.5939 141.243 65.6625 141.602C65.7386 141.955 65.9675 142.468 66.4837 142.939C67.5074 143.892 69.4622 144.686 71.9418 145.132L71.9498 145.134L71.9589 145.137C73.0925 145.509 74.3822 145.805 75.7629 146.117C77.1458 146.426 78.6284 146.743 80.1962 147.062C83.3301 147.702 86.7981 148.377 90.4723 149.064L90.3121 149.167C90.5785 148.075 90.8599 146.92 91.145 145.749C91.8059 143.047 92.4459 140.429 93.0527 137.947L93.147 138.109C89.1908 136.979 85.5813 135.949 82.516 135.074L82.5095 135.073L82.5036 135.07C80.8806 134.405 79.2662 134.162 77.8667 134.258C76.4608 134.322 75.2821 134.698 74.3672 135.079C73.4506 135.472 72.7945 135.899 72.3566 136.193C72.154 136.341 71.9927 136.458 71.8699 136.548C71.759 136.628 71.7006 136.667 71.6973 136.662C71.6936 136.659 71.745 136.611 71.849 136.523C71.9546 136.436 72.1068 136.302 72.3191 136.141C72.7474 135.829 73.3981 135.382 74.3178 134.967C75.236 134.564 76.4265 134.165 77.856 134.084C79.2785 133.971 80.9273 134.202 82.5872 134.869L82.5749 134.865C85.6446 135.725 89.2588 136.739 93.2204 137.85L93.3453 137.885L93.3148 138.011C92.7107 140.494 92.0739 143.113 91.4162 145.816C91.1306 146.986 90.8481 148.141 90.5817 149.233L90.5506 149.361L90.4214 149.337C86.7455 148.645 83.2792 147.961 80.1458 147.305C78.5785 146.978 77.0959 146.653 75.713 146.333C74.3307 146.011 73.047 145.706 71.8946 145.315L71.9117 145.32C69.4054 144.842 67.4453 144.017 66.4124 143.014C65.893 142.519 65.67 141.977 65.61 141.612C65.5569 141.24 65.6052 141.047 65.6052 141.047Z" fill="#263238"/>
<path d="M81.9353 134.781C81.9021 134.817 81.5033 134.45 80.7845 133.969C80.0684 133.487 79.0071 132.92 77.7427 132.549C76.4767 132.183 75.2771 132.091 74.4136 132.114C73.549 132.134 73.0157 132.228 73.0071 132.181C73.0002 132.153 73.5239 131.989 74.4045 131.916C75.2819 131.843 76.5201 131.905 77.821 132.281C79.1197 132.662 80.1981 133.274 80.8981 133.808C81.6024 134.342 81.9562 134.761 81.9353 134.781Z" fill="#263238"/>
<path d="M83.5038 115.593C83.5231 115.594 83.5253 115.85 83.5119 116.312C83.5017 116.774 83.4615 117.441 83.3988 118.264C83.2669 119.91 83.0214 122.181 82.591 124.665C82.1692 127.152 81.6284 129.377 81.1052 130.949C80.9739 131.341 80.8388 131.691 80.7236 131.999C80.5955 132.286 80.4819 132.543 80.3811 132.771C80.1603 133.18 80.0311 133.4 80.0139 133.391C79.9973 133.381 80.0938 133.144 80.2819 132.726C80.3688 132.496 80.4668 132.235 80.5773 131.943C80.678 131.633 80.7992 131.282 80.9171 130.889C81.3882 129.314 81.8953 127.095 82.316 124.618C82.7443 122.143 83.0203 119.883 83.2021 118.246C83.2825 117.469 83.35 116.818 83.4036 116.305C83.4497 115.846 83.4845 115.592 83.5038 115.593Z" fill="#263238"/>
<path d="M97.1647 109.518C97.1465 109.523 97.109 109.371 96.9787 109.122C96.8474 108.876 96.6078 108.524 96.1737 108.241C95.7524 107.96 95.1011 107.761 94.4306 107.986C93.7729 108.199 93.1238 108.817 92.9598 109.651L92.8848 110.032L92.7207 109.68C92.1563 108.466 91.5791 107.062 91.0827 105.541C90.1769 102.781 89.7861 100.138 89.8719 98.2291C89.8692 97.752 89.9389 97.3232 89.9662 96.9459C90.0311 96.5728 90.0788 96.2502 90.1372 95.9902C90.2728 95.474 90.3559 95.1932 90.3747 95.1985C90.4438 95.2119 90.0574 96.3418 90.0691 98.2328C90.0348 100.117 90.4502 102.718 91.3486 105.455C91.8406 106.963 92.4045 108.36 92.9507 109.574L92.7116 109.603C92.911 108.664 93.6362 108.006 94.3668 107.786C95.1183 107.553 95.8263 107.799 96.2589 108.116C96.7086 108.436 96.9385 108.821 97.0516 109.087C97.1074 109.222 97.1401 109.329 97.1529 109.404C97.1674 109.478 97.1717 109.516 97.1647 109.518Z" fill="#263238"/>
<path d="M110.233 110.725C110.215 110.726 110.179 110.5 110.109 110.087C110.052 109.675 109.916 109.068 109.995 108.29C110.103 107.527 110.464 106.602 111.288 105.916C111.696 105.578 112.254 105.353 112.846 105.357C113.431 105.356 114.07 105.584 114.487 106.09L114.25 106.225C114.087 105.815 113.916 105.383 113.741 104.945C112.741 102.419 111.851 100.128 111.22 98.4646C110.924 97.6692 110.677 97.0057 110.485 96.49C110.318 96.0216 110.234 95.7595 110.252 95.7525C110.27 95.7461 110.388 95.9953 110.587 96.452C110.801 96.9596 111.075 97.6129 111.405 98.396C112.083 100.042 113.003 102.322 114.003 104.847C114.176 105.286 114.346 105.718 114.509 106.129L114.836 106.956L114.272 106.265C113.921 105.834 113.368 105.626 112.844 105.621C112.314 105.615 111.82 105.805 111.439 106.109C110.674 106.72 110.299 107.602 110.178 108.315C110.077 109.048 110.181 109.659 110.208 110.074C110.247 110.492 110.25 110.724 110.233 110.725Z" fill="#263238"/>
<path d="M120.174 112.054C120.25 112.043 121.461 120.192 122.879 130.253C124.296 140.317 125.384 148.481 125.308 148.492C125.231 148.503 124.02 140.356 122.602 130.292C121.185 120.231 120.097 112.065 120.174 112.054Z" fill="#263238"/>
<g opacity="0.300003">
<path d="M91.2471 105.629C91.3125 107.709 91.7686 109.776 92.5822 111.681C93.1654 110.961 93.8129 110.199 94.7005 109.986C95.8079 109.721 96.9271 110.406 97.7273 111.237C97.5574 110.408 97.2776 109.584 96.7609 108.924C96.2431 108.265 95.4584 107.792 94.6362 107.814C93.8134 107.837 92.995 108.439 92.847 109.272L91.3109 105.664" fill="black"/>
</g>
<path d="M82.1954 111.519C82.1434 111.518 82.1611 110.958 81.9987 110.081C81.8385 109.208 81.4483 108.023 80.6952 106.894C80.3162 106.333 79.8906 105.846 79.4704 105.437C79.0373 105.043 78.6219 104.712 78.2419 104.481C77.4894 104.006 76.9582 103.823 76.9764 103.774C76.9823 103.756 77.1184 103.79 77.3607 103.868C77.4835 103.904 77.6298 103.958 77.7927 104.036C77.9573 104.112 78.1492 104.191 78.3432 104.312C78.7474 104.527 79.1885 104.852 79.6452 105.249C80.089 105.66 80.5354 106.159 80.9273 106.739C81.7061 107.907 82.0807 109.147 82.1938 110.05C82.2506 110.503 82.2667 110.872 82.2458 111.127C82.2314 111.381 82.2147 111.519 82.1954 111.519Z" fill="#263238"/>
<path d="M113.305 73.2671C112.671 67.3159 107.571 62.8521 101.588 63.0059L100.994 63.0209C94.5918 63.5607 91.4739 69.2986 92.19 75.6829L93.9465 98.1386L94.6904 99.0514C98.1321 103.276 103.986 104.656 108.951 102.413L108.459 95.1884C108.459 95.1884 114.599 94.072 114.517 87.9074C114.477 84.9299 113.895 78.804 113.305 73.2671Z" fill="#FFBE9D"/>
<path d="M108.508 95.1785C108.508 95.1785 104.578 95.5167 100.372 93.0232C100.372 93.0232 102.385 97.4093 108.52 96.6959L108.508 95.1785Z" fill="#EB996E"/>
<path d="M111.357 78.3654C111.385 78.8296 111.016 79.2364 110.531 79.275C110.048 79.3136 109.632 78.9695 109.604 78.5047C109.575 78.0406 109.945 77.6332 110.429 77.5951C110.913 77.556 111.329 77.9012 111.357 78.3654Z" fill="#263238"/>
<path d="M111.749 75.0146C111.679 75.1229 110.98 75.1963 110.147 75.6476C109.313 76.0909 108.813 76.6601 108.696 76.6521C108.639 76.6505 108.69 76.4961 108.905 76.2442C109.118 75.995 109.515 75.6493 110.035 75.3705C110.555 75.0923 111.041 74.9632 111.343 74.9369C111.65 74.9085 111.784 74.9637 111.749 75.0146Z" fill="#263238"/>
<path d="M102.461 78.8331C102.489 79.2973 102.119 79.7041 101.635 79.7427C101.152 79.7813 100.736 79.4366 100.707 78.9725C100.679 78.5083 101.049 78.1009 101.532 78.0623C102.017 78.0237 102.433 78.3684 102.461 78.8331Z" fill="#263238"/>
<path d="M102.326 76.3106C102.202 76.3374 101.628 75.9494 100.71 75.7232C99.7935 75.4911 99.0463 75.5495 98.9638 75.4713C98.9225 75.4353 99.0603 75.3662 99.3883 75.3373C99.7104 75.3072 100.235 75.3303 100.807 75.4734C101.379 75.6165 101.828 75.8357 102.072 76.0073C102.32 76.1798 102.385 76.2994 102.326 76.3106Z" fill="#263238"/>
<path d="M106.041 83.6702C106.035 83.6166 106.622 83.4997 107.572 83.3534C107.813 83.3223 108.04 83.2682 108.077 83.1015C108.129 82.9257 108.022 82.6679 107.897 82.3891C107.655 81.8103 107.402 81.2024 107.135 80.5662C106.074 77.9704 105.3 75.8333 105.405 75.791C105.51 75.7497 106.455 77.8197 107.515 80.4161C107.771 81.0566 108.015 81.6666 108.248 82.2508C108.347 82.5231 108.512 82.8308 108.398 83.1963C108.337 83.3786 108.163 83.5147 108.009 83.5603C107.856 83.6117 107.719 83.6176 107.6 83.6278C106.642 83.7039 106.046 83.7238 106.041 83.6702Z" fill="#263238"/>
<path d="M102.34 72.6513C102.234 72.9043 101.295 72.7365 100.179 72.8164C99.0599 72.8737 98.1493 73.1551 98.0131 72.9172C97.9531 72.8035 98.1209 72.5693 98.495 72.3377C98.8659 72.1062 99.4496 71.8977 100.12 71.8564C100.79 71.8157 101.394 71.9507 101.791 72.1351C102.191 72.319 102.386 72.5312 102.34 72.6513Z" fill="#263238"/>
<path d="M111.725 72.8617C111.519 73.0788 110.703 72.8639 109.725 72.8633C108.746 72.8355 107.919 73.0268 107.727 72.8033C107.642 72.695 107.77 72.4779 108.13 72.2705C108.485 72.0642 109.08 71.8921 109.752 71.9017C110.425 71.9119 111.009 72.1011 111.352 72.3177C111.7 72.5353 111.816 72.7561 111.725 72.8617Z" fill="#263238"/>
<path d="M115.103 67.8158C114.985 67.2562 114.434 66.7834 113.868 66.8676C114.171 66.7604 114.48 66.6478 114.718 66.4345C114.957 66.2212 115.111 65.8797 115.01 65.5753C114.852 65.0988 114.242 65.0007 113.759 64.8635C113.129 64.685 112.558 64.3039 112.151 63.7904C111.565 63.0507 111.339 62.0875 110.833 61.291C110.178 60.2592 109.04 59.5501 107.825 59.4161C106.611 59.2821 105.345 59.727 104.481 60.591C103.54 59.6241 102.12 59.1476 100.785 59.3507C99.451 59.5539 98.2369 60.4324 97.6264 61.6357C95.9911 60.9555 93.995 61.2364 92.6111 62.3421C91.2276 63.4479 90.5132 65.3325 90.816 67.0782L94.6548 69.4302C94.717 68.244 96.0409 67.3018 97.1826 67.6319C98.3414 67.9669 99.0822 69.308 100.285 69.3997C101.221 69.4704 102.018 68.7447 102.925 68.5019C104.026 68.2065 105.188 68.6476 106.18 69.2072C107.174 69.7668 108.117 70.462 109.222 70.7413C110.517 71.0682 111.897 70.7815 113.132 70.2755C113.662 70.0589 114.186 69.7942 114.58 69.3798C114.974 68.9655 115.221 68.3754 115.103 67.8158Z" fill="#263238"/>
<path d="M95.3217 67.621L112.9 67.5208C112.32 66.3239 111.318 65.3806 110.236 64.6066C107.905 62.9385 105.069 61.9352 102.202 61.9646C99.3358 61.9941 93.6006 65.6453 91.5799 67.6789C89.9628 69.3062 90.011 70.6736 90.011 70.6736C89.8105 72.9585 91.157 75.5126 91.7262 77.7348C92.0194 78.8813 92.6213 82.3568 92.6213 82.3568H92.6219C93.5899 82.3262 93.9276 81.5458 93.7544 80.5933L93.4687 76.844C93.4687 76.844 96.696 74.4127 95.0173 70.174C94.7573 69.8401 94.18 68.2905 95.3217 67.621Z" fill="#263238"/>
<path d="M93.1947 76.5943C92.3001 73.4807 91.4784 70.1457 92.4293 67.0492C92.2556 67.0423 92.0814 67.0348 91.9072 67.0278L91.6902 67.1864C90.7066 66.8557 89.5301 67.2304 88.919 68.0687C88.308 68.9065 88.3112 70.142 88.9265 70.977C87.8856 70.9283 86.886 71.7987 86.7911 72.837C86.7257 73.5536 87.0371 74.2456 87.3566 74.8904C87.6766 75.5352 88.0202 76.203 88.0245 76.9223C88.0293 77.6417 87.5689 78.4231 86.8544 78.5084C87.1744 79.2459 88.0684 79.6801 88.8456 79.4759C88.5985 80.0842 88.1745 80.6197 87.6385 80.9986C88.7834 81.7785 90.3555 81.5121 91.6006 80.9059C92.3398 80.5462 93.065 80.0333 93.3668 79.2684C93.7012 78.4215 93.4461 77.4696 93.1947 76.5943Z" fill="#263238"/>
<path d="M92.9078 80.221C92.8017 80.1781 88.6418 79.0777 88.8841 83.2869C89.1269 87.4966 93.3034 86.3844 93.3034 86.2633C93.3039 86.1422 92.9078 80.221 92.9078 80.221Z" fill="#FFBE9D"/>
<path d="M92.2965 84.7325C92.2772 84.7201 92.2263 84.7882 92.1052 84.852C91.9878 84.9142 91.782 84.9646 91.5579 84.8949C91.1039 84.7571 90.6885 84.0732 90.6242 83.3153C90.5915 82.9331 90.651 82.5633 90.7689 82.2535C90.8799 81.9383 91.0664 81.7116 91.2883 81.6591C91.5081 81.5947 91.6742 81.7191 91.7327 81.8349C91.7959 81.9496 91.7739 82.0348 91.7965 82.0412C91.8088 82.0509 91.8828 81.9651 91.8388 81.7936C91.8168 81.7105 91.7616 81.614 91.6582 81.539C91.552 81.4629 91.4014 81.4291 91.2465 81.4554C90.9228 81.4966 90.6483 81.8118 90.5181 82.1522C90.3702 82.4947 90.2946 82.9106 90.3316 83.3399C90.4077 84.1868 90.8874 84.9555 91.5059 85.0964C91.8066 85.1565 92.0484 85.053 92.1706 84.9458C92.2949 84.8343 92.3116 84.7394 92.2965 84.7325Z" fill="#EB996E"/>
<path d="M88.5366 76.7299C88.5248 76.7385 88.4187 76.5713 88.4595 76.24C88.4986 75.9179 88.7317 75.4516 89.2463 75.1434C89.7555 74.833 90.4593 74.7569 91.1748 74.6771C91.8829 74.6004 92.6917 74.3994 93.0964 73.7015C93.5016 73.0214 93.5123 72.1889 93.426 71.4916C93.3258 70.7846 93.1382 70.1425 93.0465 69.5899C92.8236 68.4755 93.0369 67.7648 93.075 67.7841C93.1253 67.7911 92.9999 68.4739 93.2733 69.5433C93.3923 70.0809 93.6013 70.7048 93.7257 71.4493C93.8296 72.1831 93.8452 73.0744 93.3762 73.8731C93.142 74.2654 92.7684 74.5645 92.3728 74.7221C91.9767 74.8829 91.5779 74.9381 91.2097 74.9772C90.4737 75.0421 89.8263 75.0935 89.3589 75.346C88.8968 75.5899 88.6546 75.986 88.5843 76.2652C88.5104 76.5515 88.5661 76.7246 88.5366 76.7299Z" fill="#455A64"/>
<path d="M87.5207 74.894C87.504 74.9004 87.4279 74.7739 87.3904 74.5134C87.3561 74.2572 87.3754 73.8557 87.6 73.4307C87.712 73.22 87.876 73.0072 88.1006 72.8293C88.3214 72.6449 88.6227 72.5307 88.9084 72.4525C89.1951 72.3689 89.4931 72.2949 89.7081 72.1245C89.9219 71.9556 90.0184 71.6764 90.0249 71.3531C90.0372 71.0321 89.9884 70.6944 89.9964 70.3567C90.0007 70.0223 90.0404 69.7007 90.1036 69.401C90.235 68.7996 90.4526 68.2921 90.7077 67.8959C90.9618 67.4886 91.3675 67.2892 91.6398 67.3037C91.9185 67.3063 92.0354 67.4318 92.0225 67.4425C92.0113 67.4682 91.8821 67.3948 91.6495 67.4312C91.4163 67.4602 91.1113 67.6419 90.9039 68.0198C90.6959 68.3944 90.5062 68.8951 90.4006 69.46C90.3486 69.7435 90.318 70.0458 90.3175 70.3589C90.3132 70.6692 90.3652 70.9994 90.3529 71.3655C90.3513 71.7225 90.22 72.1421 89.908 72.3758C89.6036 72.6052 89.2696 72.6663 88.9893 72.7435C88.4126 72.8561 88.0272 73.1772 87.8015 73.5454C87.3556 74.2995 87.5839 74.8966 87.5207 74.894Z" fill="#455A64"/>
<path d="M112.155 63.7945C112.181 63.8004 111.837 64.0239 111.285 63.7644C111.015 63.6444 110.749 63.3909 110.49 63.0875C110.233 62.7798 109.939 62.4523 109.513 62.2202C108.69 61.7528 107.36 61.6317 106.338 62.4309C105.818 62.8082 105.357 63.3356 104.751 63.7768C104.449 63.9933 104.097 64.1863 103.698 64.2635C103.299 64.3423 102.875 64.2865 102.499 64.1504C101.74 63.8775 101.141 63.4128 100.486 63.1748C99.8341 62.9224 99.1545 62.8109 98.5097 62.8195C97.2115 62.8222 96.0886 63.3115 95.3215 63.9161C94.5417 64.5197 94.0855 65.1999 93.8165 65.6801C93.5544 66.1689 93.4595 66.4659 93.4321 66.4573C93.4214 66.4536 93.4359 66.3769 93.474 66.2327C93.5136 66.0891 93.5865 65.8816 93.7023 65.6222C93.9424 65.113 94.3825 64.3878 95.1774 63.7344C95.9567 63.08 97.1354 62.5365 98.5054 62.5172C99.1856 62.4995 99.906 62.611 100.602 62.8747C101.308 63.1314 101.919 63.5983 102.607 63.84C102.949 63.9633 103.301 64.0073 103.637 63.9429C103.973 63.8791 104.282 63.7146 104.565 63.5152C105.131 63.1105 105.603 62.5831 106.161 62.1859C106.712 61.7711 107.389 61.5701 108 61.5776C108.616 61.5802 109.18 61.7544 109.628 62.0192C110.082 62.2829 110.393 62.6592 110.631 62.9696C110.875 63.2815 111.105 63.5238 111.344 63.6508C111.828 63.9231 112.156 63.7628 112.155 63.7945Z" fill="#455A64"/>
<path d="M103.701 84.7736C103.834 84.743 103.987 85.643 104.865 86.1516C105.742 86.6635 106.685 86.4009 106.713 86.5252C106.735 86.5799 106.529 86.7364 106.126 86.8152C105.731 86.8956 105.129 86.8656 104.592 86.5542C104.056 86.2417 103.766 85.7534 103.673 85.3889C103.575 85.0185 103.638 84.7784 103.701 84.7736Z" fill="#263238"/>
<path d="M159.17 168.522C157.577 167.103 155.378 166.444 153.248 166.568L149.627 178.079C152.281 178.196 154.929 179.565 157.492 178.863C159.549 178.3 161.11 176.367 161.396 174.253C161.683 172.139 160.763 169.941 159.17 168.522Z" fill="#9C1C21"/>
<path d="M153.313 166.297C153.32 166.204 153.706 166.132 154.41 166.139C155.11 166.159 156.147 166.238 157.375 166.698C158.605 167.153 159.947 168.084 160.984 169.502C161.504 170.209 161.938 171.052 162.189 171.998C162.444 172.942 162.489 173.995 162.279 175.018C162.069 176.041 161.619 177.002 160.962 177.766C160.305 178.537 159.462 179.07 158.625 179.386C156.935 180.021 155.311 179.919 154.069 179.681C152.814 179.434 151.87 179.068 151.229 178.799C150.59 178.524 150.257 178.321 150.284 178.23C150.312 178.137 150.703 178.164 151.382 178.278C152.06 178.385 153.028 178.596 154.206 178.704C155.375 178.809 156.791 178.773 158.142 178.194C158.81 177.907 159.433 177.475 159.914 176.887C160.4 176.299 160.745 175.549 160.911 174.737C161.258 173.1 160.763 171.47 159.931 170.238C159.097 168.991 158.005 168.104 156.979 167.602C155.944 167.085 154.99 166.857 154.337 166.677C153.679 166.508 153.305 166.396 153.313 166.297Z" fill="#F5F5F5"/>
<path d="M119.748 209.475L111.868 231.551L139.284 241.495C140.073 238.818 127.797 228.415 127.797 228.415L133.426 214.478L119.748 209.475Z" fill="#9C1C21"/>
<g opacity="0.600006">
<path d="M119.75 224.152C119.167 224.105 118.584 224.569 118.513 225.149C118.442 225.73 118.908 226.327 119.49 226.385C120.073 226.442 120.789 225.907 120.795 225.322C120.801 224.737 120.215 224.067 119.636 224.15" fill="white"/>
</g>
<path d="M111.868 231.551L112.663 229.323L138.705 239.712C138.705 239.712 139.734 240.685 139.284 241.495L111.868 231.551Z" fill="white"/>
<path d="M128.292 228.437C128.239 228.569 127.548 228.387 126.733 228.579C125.913 228.749 125.363 229.206 125.26 229.108C125.145 229.037 125.635 228.31 126.626 228.095C127.614 227.871 128.366 228.325 128.292 228.437Z" fill="#263238"/>
<path d="M130.736 230.669C130.72 230.81 130.057 230.828 129.397 231.229C128.726 231.611 128.389 232.181 128.258 232.128C128.124 232.103 128.316 231.285 129.146 230.802C129.972 230.311 130.78 230.541 130.736 230.669Z" fill="#263238"/>
<path d="M131.121 234.703C130.989 234.688 131.045 233.951 131.655 233.343C132.261 232.73 132.997 232.67 133.013 232.802C133.049 232.939 132.5 233.185 132.006 233.692C131.502 234.188 131.259 234.738 131.121 234.703Z" fill="#263238"/>
<path d="M129.222 225.118C129.122 225.22 128.575 224.813 127.8 224.59C127.029 224.351 126.348 224.391 126.32 224.251C126.278 224.126 127.032 223.839 127.941 224.115C128.853 224.383 129.326 225.037 129.222 225.118Z" fill="#263238"/>
<path d="M129.749 221.629C129.731 221.685 129.172 221.575 128.378 221.124C127.984 220.898 127.538 220.581 127.103 220.161C126.885 219.951 126.67 219.717 126.465 219.456C126.368 219.33 126.249 219.194 126.168 218.983C126.07 218.79 126.115 218.404 126.365 218.249C126.582 218.089 126.863 218.089 127.063 218.156C127.267 218.223 127.416 218.323 127.552 218.414C127.831 218.599 128.08 218.804 128.3 219.016C128.736 219.445 129.053 219.9 129.264 220.307C129.687 221.127 129.722 221.706 129.667 221.714C129.59 221.737 129.433 221.205 128.962 220.484C128.727 220.125 128.405 219.726 127.988 219.35C127.778 219.163 127.544 218.983 127.287 218.821C127.024 218.64 126.778 218.548 126.657 218.65C126.612 218.689 126.602 218.708 126.632 218.815C126.666 218.916 126.755 219.035 126.851 219.161C127.036 219.407 127.23 219.633 127.425 219.839C127.818 220.249 128.217 220.577 128.569 220.829C129.274 221.332 129.778 221.557 129.749 221.629Z" fill="#263238"/>
<path d="M129.506 221.758C129.45 221.761 129.359 221.185 129.625 220.3C129.758 219.862 129.991 219.357 130.357 218.865C130.541 218.62 130.758 218.38 131.009 218.158C131.268 217.945 131.595 217.654 132.136 217.782C132.411 217.871 132.56 218.164 132.571 218.373C132.595 218.592 132.554 218.757 132.529 218.928C132.464 219.266 132.344 219.578 132.195 219.853C131.897 220.405 131.482 220.804 131.094 221.058C130.3 221.574 129.684 221.532 129.689 221.482C129.669 221.399 130.229 221.31 130.886 220.776C131.211 220.513 131.551 220.134 131.789 219.643C131.907 219.399 132.001 219.129 132.052 218.841C132.114 218.534 132.09 218.259 131.971 218.249C131.835 218.198 131.524 218.333 131.327 218.525C131.097 218.72 130.894 218.931 130.717 219.146C130.365 219.579 130.119 220.026 129.954 220.419C129.625 221.21 129.585 221.764 129.506 221.758Z" fill="#263238"/>
<path d="M93.1838 150.51C89.0249 150.608 85.08 151.194 82.2156 154.211C78.4164 158.212 73.7184 163.911 73.4515 167.863C73.0532 173.771 76.6165 175.527 79.2188 176.967C80.3696 177.604 81.6817 177.892 82.996 177.841L131.065 177.476L132.574 169.334L101.485 161.672L102.776 149.971L93.1838 150.51Z" fill="#263238"/>
<path d="M102.776 149.971L117.897 149.274C117.897 149.274 144.019 150.726 149.591 155.834C155.163 160.942 154.467 166.746 152.609 172.317C150.752 177.889 134.384 213.526 134.384 213.526C134.384 213.526 135.712 215.792 134.965 218.054C133.809 221.555 130.696 222.119 130.696 222.119L116.159 216.777C116.159 216.777 114.186 216.08 115.579 214.223C116.972 212.366 117.901 212.017 117.901 212.017V208.303C117.901 208.303 123.009 199.016 123.473 197.739C123.937 196.462 128.833 177.562 128.833 177.562L132.084 171.974C132.084 171.974 124.22 168.275 117.404 165.595L101.485 161.672L102.776 149.971Z" fill="#263238"/>
<path d="M127.302 216.104C127.273 216.138 126.815 215.777 126.027 215.267C125.24 214.757 124.105 214.125 122.771 213.615C121.434 213.109 120.166 212.829 119.239 212.687C118.312 212.543 117.729 212.51 117.731 212.465C117.731 212.433 118.318 212.397 119.265 212.491C120.209 212.584 121.509 212.839 122.87 213.354C124.229 213.873 125.37 214.546 126.138 215.104C126.908 215.662 127.323 216.08 127.302 216.104Z" fill="#455A64"/>
<path d="M134.567 213.552C134.538 213.575 134.213 213.238 133.722 212.663C133.232 212.087 132.58 211.271 131.896 210.342C131.212 209.412 130.626 208.546 130.223 207.907C129.82 207.267 129.594 206.857 129.626 206.836C129.659 206.815 129.942 207.186 130.386 207.796C130.894 208.492 131.477 209.293 132.121 210.176C132.772 211.053 133.363 211.848 133.877 212.539C134.326 213.145 134.598 213.527 134.567 213.552Z" fill="#455A64"/>
<path d="M139.895 166.871C139.903 166.916 139.361 167.031 138.517 167.311C137.674 167.589 136.537 168.064 135.388 168.779C134.24 169.497 133.315 170.311 132.694 170.946C132.072 171.581 131.731 172.018 131.693 171.99C131.668 171.973 131.955 171.492 132.55 170.812C133.142 170.132 134.068 169.276 135.24 168.542C136.413 167.812 137.589 167.356 138.46 167.122C139.331 166.887 139.89 166.84 139.895 166.871Z" fill="#455A64"/>
<path d="M125.025 192.106C125.015 192.103 125.036 191.995 125.084 191.792C125.143 191.559 125.216 191.267 125.307 190.906C125.523 190.104 125.818 189.005 126.178 187.662C126.949 184.898 127.997 181.141 129.154 176.989C129.757 174.907 130.275 172.922 130.856 171.124C131.533 169.341 132.602 167.965 133.593 166.948C134.593 165.928 135.528 165.242 136.192 164.806C136.528 164.593 136.791 164.431 136.976 164.334C137.16 164.233 137.258 164.184 137.263 164.192C137.275 164.214 136.899 164.439 136.254 164.895C135.613 165.356 134.704 166.06 133.736 167.084C132.776 168.106 131.742 169.472 131.097 171.213C130.539 172.985 130.022 174.994 129.421 177.069C128.233 181.211 127.159 184.959 126.368 187.717C125.973 189.049 125.648 190.14 125.413 190.935C125.301 191.291 125.21 191.579 125.139 191.807C125.073 192.006 125.035 192.109 125.025 192.106Z" fill="#455A64"/>
<path d="M111.65 164.883C111.573 164.889 111.255 162.062 110.94 158.568C110.624 155.073 110.431 152.235 110.508 152.229C110.585 152.221 110.902 155.048 111.218 158.543C111.533 162.036 111.726 164.875 111.65 164.883Z" fill="#455A64"/>
<path d="M86.4817 172.431C86.4388 172.451 86.2057 171.994 85.7324 171.324C85.2618 170.653 84.5194 169.787 83.5364 169.016C82.5502 168.249 81.5307 167.737 80.7658 167.443C80.001 167.147 79.5009 167.031 79.5105 166.984C79.5153 166.955 80.0336 167.002 80.8323 167.258C81.6293 167.509 82.6949 168.007 83.7085 168.796C84.7188 169.588 85.4596 170.501 85.897 171.214C86.337 171.927 86.5091 172.419 86.4817 172.431Z" fill="#455A64"/>
<path d="M95.7457 162.167C95.7189 162.21 95.0779 161.799 93.9673 161.293C92.8599 160.786 91.2567 160.23 89.4166 159.963C87.5744 159.702 85.8801 159.785 84.6746 159.96C83.4665 160.132 82.7365 160.347 82.7225 160.298C82.7172 160.28 82.8951 160.213 83.2237 160.108C83.5507 159.997 84.0363 159.878 84.6436 159.765C85.8555 159.537 87.5819 159.421 89.4563 159.686C91.3291 159.959 92.9526 160.556 94.052 161.115C94.603 161.393 95.0355 161.645 95.3185 161.843C95.6037 162.037 95.7564 162.151 95.7457 162.167Z" fill="#455A64"/>
<path d="M131.954 169.326C131.951 169.336 131.821 169.314 131.577 169.264C131.306 169.205 130.951 169.128 130.51 169.032C129.553 168.817 128.222 168.518 126.591 168.152C123.283 167.411 118.706 166.417 113.632 165.412C108.556 164.408 103.946 163.582 100.604 163.007C98.9565 162.725 97.6122 162.494 96.6463 162.328C96.2014 162.249 95.8444 162.184 95.5711 162.136C95.3261 162.088 95.198 162.059 95.1991 162.05C95.2007 162.04 95.3315 162.051 95.5797 162.08C95.8546 162.116 96.2148 162.162 96.6629 162.221C97.6031 162.347 98.9608 162.549 100.636 162.813C103.987 163.338 108.607 164.133 113.686 165.138C118.764 166.144 123.337 167.169 126.636 167.959C128.285 168.355 129.617 168.686 130.535 168.927C130.971 169.044 131.322 169.137 131.59 169.209C131.831 169.277 131.956 169.316 131.954 169.326Z" fill="#455A64"/>
<path d="M101.485 163.052C101.431 163.068 101.318 162.416 100.819 161.516C100.566 161.069 100.201 160.575 99.7196 160.093C99.2426 159.608 98.6583 159.125 98.036 158.638C96.7818 157.677 95.5072 156.997 94.5933 156.5C93.6735 156.007 93.1043 155.699 93.122 155.663C93.1381 155.63 93.7368 155.874 94.6823 156.323C95.6224 156.778 96.926 157.435 98.2065 158.417C98.8379 158.912 99.4221 159.404 99.9045 159.914C100.39 160.42 100.754 160.948 100.993 161.422C101.231 161.899 101.358 162.31 101.422 162.598C101.486 162.885 101.501 163.048 101.485 163.052Z" fill="#455A64"/>
<path d="M155.023 170.32C155.085 170.38 154.28 171.192 153.654 172.428C153.015 173.657 152.823 174.784 152.739 174.768C152.67 174.769 152.742 173.581 153.406 172.3C154.059 171.015 154.983 170.264 155.023 170.32Z" fill="#263238"/>
<g opacity="0.300003">
<path d="M120.618 115.391L124.059 139.629L124.23 140.016C125.043 131.677 123.792 123.145 120.618 115.391Z" fill="black"/>
</g>
<path d="M139.149 129.32L127.96 148.888L100.393 149.487L100.325 150.736L127.017 150.537L127.863 150.508L156.05 150.564L161.746 140.741L169.022 130.312C169.499 129.628 169.008 128.691 168.174 128.694L140.038 128.801C139.671 128.803 139.332 129 139.149 129.32Z" fill="#E0E0E0"/>
<path d="M161.746 140.741C161.746 140.741 163.194 142.068 162.966 143.196C162.737 144.324 162.813 145.162 161.746 145.239C161.746 145.239 161.823 146.687 160.298 146.916C160.298 146.916 160.624 148.684 158.566 148.989C158.566 148.989 157.935 150.88 156.639 150.422C155.343 149.965 154.504 149.431 154.504 149.431L154.123 148.746C154.123 148.746 152.213 148.027 152.684 146.949C152.969 146.295 153.957 146.125 153.957 146.125C153.957 146.125 153.546 145.165 154.079 144.448C154.537 143.833 156.028 144.341 156.028 144.341C156.028 144.341 155.939 143.547 156.5 142.882C157.007 142.28 159.38 143.916 159.38 143.916L160.675 142.37L161.746 140.741Z" fill="#FFBE9D"/>
<path d="M158.566 148.989C158.526 149.054 157.461 148.466 156.188 147.675C154.915 146.884 153.916 146.19 153.957 146.125C153.998 146.059 155.062 146.647 156.336 147.438C157.608 148.229 158.607 148.924 158.566 148.989Z" fill="#EB996E"/>
<path d="M160.298 146.916C160.258 146.981 159.27 146.458 158.091 145.748C156.911 145.037 155.988 144.407 156.027 144.341C156.067 144.275 157.055 144.798 158.235 145.509C159.414 146.22 160.337 146.85 160.298 146.916Z" fill="#EB996E"/>
<path d="M157.938 143.035C157.981 142.957 158.865 143.423 159.895 144.074C160.925 144.732 161.756 145.243 161.736 145.296C161.697 145.387 160.777 144.969 159.747 144.311C158.713 143.657 157.908 143.092 157.938 143.035Z" fill="#EB996E"/>
<path d="M169.026 129.436C169.026 129.441 168.981 129.446 168.892 129.45C168.786 129.454 168.656 129.458 168.496 129.464C168.125 129.47 167.617 129.479 166.974 129.491C165.628 129.501 163.722 129.516 161.376 129.535C156.63 129.545 150.11 129.559 142.909 129.576C142.458 129.575 142.01 129.575 141.565 129.575C141.142 129.543 140.759 129.729 140.54 130.059C140.115 130.824 139.697 131.578 139.287 132.319C138.463 133.805 137.668 135.24 136.911 136.608C135.393 139.334 134.025 141.791 132.873 143.862C131.723 145.907 130.789 147.568 130.13 148.741C129.809 149.298 129.556 149.739 129.372 150.06C129.289 150.197 129.222 150.309 129.169 150.399C129.121 150.476 129.095 150.513 129.091 150.51C129.087 150.508 129.105 150.466 129.143 150.385C129.192 150.291 129.25 150.175 129.323 150.033C129.496 149.705 129.734 149.256 130.035 148.687C130.676 147.504 131.584 145.828 132.701 143.765C133.839 141.686 135.188 139.218 136.687 136.482C137.439 135.112 138.23 133.674 139.048 132.185C139.461 131.437 139.882 130.677 140.308 129.907C140.568 129.491 141.097 129.256 141.565 129.297C142.01 129.297 142.458 129.296 142.909 129.296C150.11 129.313 156.63 129.327 161.376 129.337C163.722 129.356 165.628 129.371 166.974 129.381C167.617 129.392 168.125 129.402 168.496 129.407C168.656 129.413 168.786 129.418 168.892 129.422C168.981 129.426 169.026 129.431 169.026 129.436Z" fill="#263238"/>
<path d="M149.191 139.273C148.693 139.824 148.681 140.625 149.164 141.061C149.648 141.497 150.444 141.404 150.942 140.851C151.439 140.3 151.451 139.499 150.967 139.063C150.484 138.627 149.689 138.721 149.191 139.273Z" fill="white"/>
<g opacity="0.300003">
<path d="M70.9395 131.705C70.7005 131.801 70.4282 131.961 70.4261 132.218C70.4234 132.427 70.6179 132.595 70.8216 132.639C71.0258 132.683 71.7628 132.377 71.9665 132.332C74.8636 131.693 77.2525 132.305 80.014 133.391L80.1035 133.299C79.0021 130.974 74.0564 130.45 70.9395 131.705Z" fill="black"/>
</g>
<path d="M220.283 240.506C220.283 240.583 171.799 240.645 112.005 240.645C52.1905 240.645 3.7168 240.583 3.7168 240.506C3.7168 240.428 52.1905 240.366 112.005 240.366C171.799 240.366 220.283 240.428 220.283 240.506Z" fill="#263238"/>
<path d="M55.9438 69.6557C56.0366 69.7484 73.835 63.6305 73.835 63.6305L66.9913 47.9246L51.1477 53.982L59.8631 58.9898L55.9438 69.6557Z" fill="#455A64"/>
<path d="M64.2927 52.657V31.2717C64.2927 31.2717 88.8463 26.7832 106.536 27.0475C124.224 27.3112 142.443 30.2152 142.443 30.2152V50.7462C142.443 50.7462 86.9982 45.7924 64.2927 52.657Z" fill="#455A64"/>
<path d="M64.1652 52.6753L73.8351 63.7228V50.7462C73.8351 50.7462 65.7469 51.7137 64.1652 52.6753Z" fill="#263238"/>
<path d="M64.2926 31.2707C64.3698 31.2712 64.4036 36.063 64.3687 41.9724C64.3334 47.8845 64.2422 52.6748 64.1651 52.6742C64.0879 52.6737 64.0541 47.8829 64.0895 41.9708C64.1249 36.0614 64.2154 31.2701 64.2926 31.2707Z" fill="#263238"/>
<path d="M150.765 68.0152C150.672 68.108 132.873 61.9895 132.873 61.9895L139.717 46.2842L155.56 52.3415L146.845 57.3494L150.765 68.0152Z" fill="#455A64"/>
<path d="M142.543 51.0346L132.873 62.0827V50.0441C136.097 50.1524 139.32 50.482 142.543 51.0346Z" fill="#263238"/>
<path d="M142.442 30.2167C142.52 30.2162 142.604 34.8767 142.632 40.6248C142.66 46.375 142.62 51.0355 142.543 51.036C142.466 51.036 142.381 46.3766 142.353 40.6264C142.325 34.8783 142.365 30.2167 142.442 30.2167Z" fill="#263238"/>
<path d="M78.1397 40.6488C77.9033 38.9438 79.0434 37.5422 80.8047 37.2978C81.7824 37.1621 82.648 37.4044 83.2708 37.9774L82.5381 38.8693C82.0975 38.4855 81.5894 38.3258 81.0239 38.4041C79.9653 38.5509 79.3168 39.3983 79.4647 40.465C79.6126 41.5316 80.4676 42.1711 81.5256 42.0242C82.0916 41.9454 82.537 41.6533 82.8549 41.1564L83.8031 41.8152C83.3603 42.5441 82.5939 43.0126 81.6076 43.1493C79.8544 43.3926 78.3761 42.3538 78.1397 40.6488Z" fill="white"/>
<path d="M88.874 39.3408C88.7631 38.2618 87.9248 37.6015 86.9101 37.706C85.896 37.8105 85.2094 38.6268 85.3203 39.7063C85.4313 40.7853 86.2701 41.4451 87.2842 41.3406C88.2984 41.2366 88.985 40.4197 88.874 39.3408ZM83.99 39.843C83.8163 38.1557 85.002 36.7707 86.7954 36.5863C88.5803 36.403 90.0302 37.5082 90.2044 39.2041C90.3791 40.8995 89.1844 42.277 87.3995 42.4603C85.606 42.6447 84.1631 41.5303 83.99 39.843Z" fill="white"/>
<path d="M96.6214 41.629L96.3936 38.212L94.8982 41.1353L94.3043 41.1734L92.4594 38.5379L92.6748 41.883L91.4377 41.9624L91.0717 36.2658L92.1619 36.1955L94.5219 39.5986L96.3936 35.9233L97.4758 35.8541L97.8585 41.5497L96.6214 41.629Z" fill="white"/>
<path d="M102.664 37.7668C102.646 37.1392 102.228 36.7838 101.421 36.8063L100.344 36.8363L100.4 38.8179L101.476 38.7874C102.284 38.7649 102.681 38.3864 102.664 37.7668ZM104.001 37.7293C104.037 39.0012 103.105 39.8192 101.58 39.862L100.43 39.8942L100.475 41.4679L99.1533 41.5049L98.993 35.797L101.464 35.7279C102.988 35.685 103.965 36.4493 104.001 37.7293Z" fill="white"/>
<path d="M105.004 35.655H106.325V40.2866H109.187V41.3629H105.004V35.655Z" fill="white"/>
<path d="M114.334 40.4476L114.303 41.5078L109.883 41.3791L110.05 35.6713L114.363 35.7967L114.332 36.8569L111.332 36.7695L111.296 38.0088L113.946 38.086L113.916 39.1135L111.266 39.0363L111.227 40.3575L114.334 40.4476Z" fill="white"/>
<path d="M116.774 37.0107L114.952 36.9008L115.017 35.8267L119.98 36.1263L119.916 37.2004L118.093 37.09L117.814 41.7125L116.495 41.6332L116.774 37.0107Z" fill="white"/>
<path d="M124.788 41.2299L124.69 42.2858L120.289 41.8779L120.816 36.1931L125.112 36.5908L125.014 37.6467L122.025 37.3696L121.911 38.604L124.55 38.849L124.456 39.8722L121.816 39.6272L121.695 40.9431L124.788 41.2299Z" fill="white"/>
<path d="M128.331 41.6499C129.455 41.8 130.279 41.2276 130.424 40.1448C130.569 39.0616 129.923 38.293 128.8 38.1429L127.604 37.9831L127.136 41.4902L128.331 41.6499ZM126.438 36.7337L129.008 37.0768C130.858 37.3239 131.978 38.6087 131.749 40.3217C131.52 42.0348 130.103 42.9803 128.252 42.7332L125.683 42.3896L126.438 36.7337Z" fill="white"/>
<path d="M153.429 32.1614L154.83 33.809L158.785 32.1614L157.632 30.4306L153.429 32.1614Z" fill="#455A64"/>
<path d="M151.616 24.3336C151.616 25.4715 150.694 26.3934 149.556 26.3934C148.419 26.3934 147.497 25.4715 147.497 24.3336C147.497 23.1962 148.419 22.2737 149.556 22.2737C150.694 22.2737 151.616 23.1962 151.616 24.3336Z" fill="#9C1C21"/>
<path d="M105.508 55.0334C105.508 55.6021 105.047 56.0631 104.479 56.0631C103.91 56.0631 103.449 55.6021 103.449 55.0334C103.449 54.4647 103.91 54.0038 104.479 54.0038C105.047 54.0038 105.508 54.4647 105.508 55.0334Z" fill="#9C1C21"/>
<path d="M57.5619 39.5656C57.5619 39.9971 57.2119 40.3471 56.7804 40.3471C56.3489 40.3471 55.9989 39.9971 55.9989 39.5656C55.9989 39.1341 56.3489 38.7841 56.7804 38.7841C57.2119 38.7841 57.5619 39.1341 57.5619 39.5656Z" fill="#9C1C21"/>
<path d="M54.657 30.9498L56.9639 31.0902L58.059 26.5589L55.9048 26.6468L54.657 30.9498Z" fill="#455A64"/>
<path d="M126.697 67.1463L127.473 69.3235L132.071 68.5533L131.146 66.6066L126.697 67.1463Z" fill="#9C1C21"/>
<path d="M80.1809 54.5901L78.7605 56.413L81.8779 59.8793L83.0238 58.0532L80.1809 54.5901Z" fill="#455A64"/>
<path d="M74.6753 11.7766L80.1205 17.3279L87.781 14.433L88.0838 16.3331L84.766 23.1274L87.8239 28.1991L87.5677 29.7122L80.1553 28.4649L75.7735 33.2755L74.7444 32.4935L73.8364 26.3777L66.9215 22.7769L66.6187 21.3817L73.5808 19.4751L74.6753 11.7766Z" fill="#FF725E"/>
<g opacity="0.300003">
<path d="M74.6753 11.7766L80.1205 17.3279L87.781 14.433L88.0838 16.3331L84.766 23.1274L87.8239 28.1991L87.5677 29.7122L80.1553 28.4649L75.7735 33.2755L74.7444 32.4935L73.8364 26.3777L66.9215 22.7769L66.6187 21.3817L73.5808 19.4751L74.6753 11.7766Z" fill="black"/>
</g>
<path d="M74.6753 10.2199L80.1205 15.7712L87.781 14.4328L84.1839 21.3274L87.8239 28.1989L80.1553 26.9082L74.7444 32.4939L73.6027 24.8017L66.6187 21.3821L73.5808 17.9184L74.6753 10.2199Z" fill="#9C1C21"/>
<path d="M131.09 11.7766L125.645 17.3279L117.984 14.433L117.682 16.3331L120.999 23.1274L117.941 28.1991L118.198 29.7122L125.609 28.4649L129.992 33.2755L131.02 32.4935L131.928 26.3777L138.844 22.7769L139.147 21.3817L132.184 19.4751L131.09 11.7766Z" fill="#FF725E"/>
<g opacity="0.300003">
<path d="M131.09 11.7766L125.645 17.3279L117.984 14.433L117.682 16.3331L120.999 23.1274L117.941 28.1991L118.198 29.7122L125.609 28.4649L129.992 33.2755L131.02 32.4935L131.928 26.3777L138.844 22.7769L139.147 21.3817L132.184 19.4751L131.09 11.7766Z" fill="black"/>
</g>
<path d="M131.09 10.2199L125.645 15.7712L117.984 14.4328L121.581 21.3274L117.941 28.1989L125.609 26.9082L131.02 32.4939L132.163 24.8017L139.147 21.3821L132.184 17.9184L131.09 10.2199Z" fill="#9C1C21"/>
<path d="M102.704 2.0401L107.233 10.8873L117.682 10.2731L117.328 12.7065L110.692 19.7324L112.491 27.0847L111.601 28.8342L103.033 24.4883L95.8548 28.6884L94.8975 27.343L96.1191 19.5351L89.053 12.5082L89.2154 10.6906L98.4362 11.0165L102.704 2.0401Z" fill="#FF725E"/>
<g opacity="0.300003">
<path d="M102.704 2.0401L107.233 10.8873L117.682 10.2731L117.328 12.7065L110.692 19.7324L112.491 27.0847L111.601 28.8342L103.033 24.4883L95.8548 28.6884L94.8975 27.343L96.1191 19.5351L89.053 12.5082L89.2154 10.6906L98.4362 11.0165L102.704 2.0401Z" fill="black"/>
</g>
<path d="M103.297 0.140802L107.826 8.98802L117.681 10.2728L110.667 17.3142L112.49 27.085L103.626 22.589L94.8972 27.3428L96.4339 17.5233L89.2156 10.6904L99.0292 9.1172L103.297 0.140802Z" fill="#9C1C21"/>
<path d="M121.342 79.5303L128.912 80.3643C130.734 77.7701 133.273 75.6309 136.398 74.2861C145.387 70.4178 155.809 74.5686 159.677 83.5568C163.545 92.5449 159.395 102.967 150.407 106.836C141.418 110.704 130.996 106.553 127.127 97.5646C125.512 93.812 125.3 89.8097 126.249 86.1381L126.244 86.1467L121.342 79.5303Z" fill="#FAFAFA"/>
<path d="M121.342 79.5303C121.639 79.9243 123.169 81.9536 126.3 86.1054L126.183 86.1129L126.189 86.1044C126.207 86.0706 126.249 86.0588 126.283 86.077C126.311 86.0931 126.324 86.1258 126.316 86.1558C125.69 88.6037 125.449 91.8283 126.434 95.3064C126.685 96.1688 126.989 97.0516 127.413 97.9103C127.628 98.337 127.833 98.7786 128.066 99.2122C128.327 99.6298 128.593 100.053 128.861 100.481C130.011 102.146 131.509 103.706 133.337 104.975C135.161 106.244 137.312 107.218 139.658 107.731C141.998 108.243 144.536 108.302 147.033 107.765C149.524 107.225 151.971 106.125 154.092 104.495C156.204 102.865 158.035 100.732 159.212 98.2115C160.421 95.6532 161.069 92.8574 160.969 90.1254C160.892 87.3945 160.176 84.7553 158.983 82.4488C157.791 80.1424 156.131 78.1566 154.193 76.6724C152.261 75.1785 150.094 74.1478 147.917 73.5663C145.738 72.9809 143.552 72.8453 141.519 73.0501C139.479 73.2623 137.627 73.8739 135.971 74.5847C132.672 76.0989 130.399 78.3811 128.967 80.4024C128.953 80.4233 128.928 80.433 128.905 80.4308C124.115 79.8605 121.81 79.5861 121.342 79.5303C121.811 79.5775 124.12 79.8117 128.92 80.2979L128.857 80.3258C130.283 78.2772 132.562 75.9563 135.89 74.4094C137.559 73.6826 139.432 73.056 141.496 72.8335C143.553 72.6186 145.768 72.7483 147.979 73.3352C150.186 73.9184 152.387 74.9582 154.35 76.4703C156.32 77.9722 158.008 79.9849 159.221 82.325C160.436 84.6641 161.166 87.3447 161.245 90.1185C161.349 92.8939 160.692 95.7341 159.463 98.3327C158.268 100.893 156.407 103.06 154.261 104.714C152.104 106.369 149.619 107.483 147.088 108.028C144.553 108.571 141.976 108.506 139.603 107.982C137.224 107.458 135.045 106.464 133.199 105.172C131.35 103.881 129.838 102.295 128.679 100.605C128.409 100.17 128.142 99.7407 127.879 99.3173C127.645 98.8778 127.44 98.4302 127.224 97.9971C126.799 97.1272 126.495 96.2326 126.244 95.3595C125.266 91.838 125.53 88.5823 126.182 86.1204L126.31 86.1724L126.305 86.181C126.287 86.2142 126.244 86.2266 126.211 86.2078C126.202 86.2035 126.194 86.196 126.188 86.188C123.128 81.9841 121.632 79.9291 121.342 79.5303Z" fill="#263238"/>
<path d="M136.871 84.2538C136.876 84.2586 136.88 84.3417 136.884 84.4988C136.888 84.6746 136.893 84.9013 136.899 85.1859C136.906 85.805 136.917 86.6712 136.93 87.7619C136.945 89.9842 136.966 93.1177 136.992 96.8675L136.871 96.7469C140.543 96.7415 144.869 96.7351 149.484 96.7281C149.516 96.6981 149.22 96.9913 149.345 96.8654V96.8621V96.8557V96.8418V96.815V96.7608V96.6526V96.4366V96.0062V95.1512C149.346 94.5831 149.346 94.0213 149.346 93.465C149.348 92.3517 149.349 91.2631 149.35 90.204C149.355 88.0873 149.36 86.0891 149.365 84.2538L149.485 84.375C145.734 84.3492 142.601 84.3283 140.379 84.3133C139.288 84.2994 138.422 84.2892 137.803 84.2817C137.518 84.2758 137.292 84.271 137.116 84.2672C136.959 84.2629 136.876 84.2586 136.871 84.2538C136.866 84.2495 136.941 84.2447 137.089 84.2404C137.26 84.2367 137.478 84.2318 137.753 84.2265C138.365 84.219 139.222 84.2083 140.302 84.1949C142.543 84.1799 145.703 84.1584 149.485 84.1332L149.605 84.1321L149.606 84.2538C149.61 86.0891 149.614 88.0873 149.62 90.204C149.621 91.2631 149.622 92.3517 149.623 93.465C149.623 94.0213 149.624 94.5831 149.624 95.1512C149.625 95.4348 149.625 95.7199 149.625 96.0062V96.4366V96.6526V96.7608V96.815V96.8418V96.8557V96.8621V96.8654C149.749 96.7421 149.455 97.0385 149.484 97.0074C144.869 97.0004 140.543 96.994 136.871 96.9886L136.749 96.9881L136.75 96.8675C136.776 93.086 136.796 89.9263 136.812 87.6853C136.825 86.6058 136.836 85.7482 136.843 85.1361C136.849 84.8611 136.854 84.6419 136.858 84.4725C136.862 84.3235 136.866 84.2495 136.871 84.2538Z" fill="#263238"/>
<path d="M148.123 86.3392C148.305 86.4828 146.607 88.9265 144.333 91.7973C143.879 92.3697 143.436 92.9164 143.025 93.4133L142.755 93.7392L142.453 93.4674C140.483 91.6927 139.146 90.3308 139.267 90.1909C139.388 90.0504 140.931 91.175 142.973 92.8655L142.401 92.9197C142.792 92.4056 143.222 91.8498 143.677 91.2768C145.951 88.4065 147.942 86.1955 148.123 86.3392Z" fill="#9C1C21"/>
</svg>
