<svg width="238" height="238" viewBox="0 0 238 238" fill="none" xmlns="http://www.w3.org/2000/svg">
<path d="M237.986 119C237.986 184.722 184.711 238 118.993 238C53.2749 238 0 184.722 0 119C0 53.2782 53.2749 0 118.993 0C184.711 0 237.986 53.2782 237.986 119Z" fill="#9C1C21"/>
<path d="M0.983801 83.1283C0.692758 79.5726 3.33829 76.4552 6.89298 76.1639C10.4477 75.8726 23.7342 81.2646 23.7342 81.2646C23.7342 81.2646 11.5018 88.7467 7.94713 89.038C4.39258 89.328 1.27498 86.6827 0.983801 83.1283Z" fill="#E6D0BE"/>
<path d="M6.47713 82.8081C6.41003 82.8081 6.3532 82.7561 6.34761 82.6884C6.34176 82.6169 6.39507 82.5532 6.4666 82.548L69.3391 77.3991C69.4138 77.3926 69.4735 77.4459 69.4794 77.5175C69.4852 77.589 69.4319 77.6514 69.3604 77.6579L6.48792 82.8068C6.48428 82.8081 6.48064 82.8081 6.47713 82.8081Z" fill="#F7F1EB"/>
<path d="M17.8502 99.3145C16.0209 97.0113 16.4049 93.6611 18.7081 91.8312C21.0114 90.0013 32.5911 87.6057 32.5911 87.6057C32.5911 87.6057 27.6361 98.343 25.333 100.172C23.0297 102.001 19.6796 101.618 17.8502 99.3145Z" fill="#E6D0BE"/>
<path d="M21.8097 96.3004C21.7713 96.3004 21.7334 96.2835 21.7076 96.251C21.663 96.195 21.6724 96.1131 21.7286 96.0676L42.4248 79.6287C42.4808 79.5832 42.5629 79.5936 42.6075 79.6495C42.6522 79.7054 42.6429 79.7873 42.5866 79.8329L21.8905 96.2718C21.8665 96.2913 21.8379 96.3004 21.8097 96.3004Z" fill="#F7F1EB"/>
<path d="M31.2628 70.5269C34.0515 72.0784 46.8711 72.5999 46.8711 72.5999C46.8711 72.5999 39.6712 61.9797 36.8826 60.4268C34.0939 58.8753 30.5752 59.878 29.0235 62.6664C27.4715 65.456 28.4742 68.974 31.2628 70.5269Z" fill="#E6D0BE"/>
<path d="M57.2359 78.4986C57.2144 78.4986 57.1927 78.4934 57.1727 78.4817L34.0778 65.6284C34.0151 65.5946 33.9925 65.5152 34.0274 65.4515C34.0623 65.3891 34.1412 65.367 34.2043 65.4021L57.2992 78.2541C57.3619 78.2892 57.3846 78.3685 57.3497 78.431C57.3259 78.4739 57.2816 78.4986 57.2359 78.4986Z" fill="#F7F1EB"/>
<path d="M46.3467 16.6741C48.3931 20.551 48.7193 38.1734 48.7193 38.1734C48.7193 38.1734 34.3541 27.9628 32.3077 24.0846C30.2613 20.2077 31.7451 15.406 35.6218 13.359C39.4986 11.3132 44.3003 12.7971 46.3467 16.6741Z" fill="#E6D0BE"/>
<path d="M74.9816 88.0575C74.9348 88.0575 74.8897 88.0328 74.8664 87.9886L38.6708 19.4134C38.6373 19.351 38.6616 19.2716 38.7252 19.2378C38.7885 19.2053 38.8672 19.2287 38.9009 19.2925L75.0964 87.8664C75.13 87.9301 75.1057 88.0094 75.0421 88.0419C75.0228 88.0523 75.002 88.0575 74.9816 88.0575Z" fill="#F7F1EB"/>
<path d="M34.3499 37.5984C37.5301 39.3164 45.8331 51.2476 45.8331 51.2476C45.8331 51.2476 31.3044 50.834 28.1242 49.116C24.9437 47.3967 23.7593 43.4235 25.4785 40.2437C27.1977 37.0626 31.1696 35.8791 34.3499 37.5984Z" fill="#E6D0BE"/>
<path d="M59.5232 58.7798C59.5023 58.7798 59.4811 58.7746 59.4615 58.7629L30.884 43.3137C30.8208 43.2799 30.7972 43.2006 30.8313 43.1382C30.8654 43.0744 30.9443 43.051 31.0076 43.0848L59.5852 58.534C59.6483 58.5691 59.6719 58.6472 59.6377 58.7109C59.6143 58.7538 59.5695 58.7798 59.5232 58.7798Z" fill="#F7F1EB"/>
<path d="M64.4928 41.4961C64.0862 45.3977 69.6909 60.1381 69.6909 60.1381C69.6909 60.1381 78.2145 46.8699 78.621 42.9683C79.0277 39.0667 76.1946 35.5734 72.2931 35.1676C68.3917 34.7605 64.8994 37.5944 64.4928 41.4961Z" fill="#E6D0BE"/>
<path d="M68.1807 74.7696C68.1762 74.7696 68.1716 74.7696 68.167 74.7696C68.0956 74.7618 68.0437 74.698 68.0513 74.6265L71.4184 42.3131C71.4257 42.2429 71.4885 42.1909 71.5612 42.1974C71.6327 42.2052 71.6845 42.2689 71.6771 42.3405L68.3098 74.6538C68.3029 74.7202 68.2465 74.7696 68.1807 74.7696Z" fill="#F7F1EB"/>
<path d="M94.7669 216.541H234.702V110.991H94.7669V216.541ZM234.832 216.801H94.6369C94.5641 216.801 94.5068 216.742 94.5068 216.671V110.861C94.5068 110.789 94.5641 110.731 94.6369 110.731H234.832C234.904 110.731 234.962 110.789 234.962 110.861V216.671C234.962 216.742 234.904 216.801 234.832 216.801Z" fill="#D3BBA3"/>
<path d="M99.0344 203.806V115.241H230.432V203.806H99.0344Z" fill="#E6D0BE"/>
<path d="M99.0344 203.806V115.241H230.432V203.806H99.0344Z" fill="#E6D0BE"/>
<path d="M105.136 183.389V125.702H224.906V183.389H105.136Z" fill="#9C1C21"/>
<path d="M167.373 209.719C167.373 211.169 166.191 212.346 164.734 212.346C163.277 212.346 162.094 211.169 162.094 209.719C162.094 208.268 163.277 207.091 164.734 207.091C166.191 207.091 167.373 208.268 167.373 209.719Z" fill="white"/>
<path d="M82.5949 219.704C82.6644 225.69 87.5184 230.538 93.4758 230.538H223.82C229.777 230.538 234.632 225.69 234.701 219.704H82.5949ZM223.82 230.799H93.4758C87.3324 230.799 82.334 225.763 82.334 219.574C82.334 219.502 82.3921 219.444 82.464 219.444H234.832C234.904 219.444 234.962 219.502 234.962 219.574C234.962 225.763 229.963 230.799 223.82 230.799Z" fill="#D3BBA3"/>
<path d="M197.931 229.649C197.859 229.649 197.801 229.591 197.801 229.519C197.801 229.448 197.859 229.389 197.931 229.389C202.672 229.389 206.531 225.502 206.531 220.723C206.531 220.652 206.589 220.593 206.661 220.593C206.732 220.593 206.791 220.652 206.791 220.723C206.791 225.645 202.816 229.649 197.931 229.649Z" fill="#D3BBA3"/>
<path d="M146.542 222.196C146.542 224.8 144.447 226.91 141.863 226.91H125.389C122.805 226.91 120.708 224.8 120.708 222.196H146.542Z" fill="#9C1C21"/>
<path d="M104.218 170.876H221.267V8.87479H104.218V170.876Z" fill="white"/>
<path d="M217.825 174.449H100.774C100.703 174.449 100.644 174.39 100.644 174.319V22.8078C100.644 22.7363 100.703 22.6777 100.774 22.6777C100.847 22.6777 100.904 22.7363 100.904 22.8078V174.189H217.695V12.4476L180.211 12.3111C180.139 12.3111 180.08 12.2526 180.08 12.1797C180.082 12.1082 180.139 12.051 180.211 12.051C180.212 12.051 180.212 12.051 180.212 12.051L217.825 12.1875C217.897 12.1888 217.955 12.2461 217.955 12.3176V174.319C217.955 174.39 217.897 174.449 217.825 174.449Z" fill="#D3BBA3"/>
<path d="M190.118 128.235H150.205V125.153H190.118V128.235Z" fill="#9C1C21"/>
<path d="M205.468 135.938H156.399V132.854H205.468V135.938Z" fill="#9C1C21"/>
<path d="M197.416 143.64H150.205V140.556H197.416V143.64Z" fill="#9C1C21"/>
<path d="M210.143 94.3196H160.768V91.2373H210.143V94.3196Z" fill="#9C1C21"/>
<path d="M196.082 102.023H148.871V98.9392H196.082V102.023Z" fill="#9C1C21"/>
<path d="M204.307 109.725H148.871V106.641H204.307V109.725Z" fill="#9C1C21"/>
<path d="M204.306 62.4586H160.942V59.375H204.306V62.4586Z" fill="#9C1C21"/>
<path d="M196.081 70.1603H149.045V67.0767H196.081V70.1603Z" fill="#9C1C21"/>
<path d="M210.143 77.862H149.045V74.7797H210.143V77.862Z" fill="#9C1C21"/>
<path d="M115.205 150.455H139.869V125.802H115.205V150.455ZM140 150.715H115.075C115.003 150.715 114.945 150.658 114.945 150.585V125.672C114.945 125.6 115.003 125.542 115.075 125.542H140C140.072 125.542 140.13 125.6 140.13 125.672V150.585C140.13 150.658 140.072 150.715 140 150.715Z" fill="#9E6C5A"/>
<path d="M126.2 146.82L118.397 139.724L120.807 136.752L125.755 140.707L133.519 129.438L136.678 131.612L126.2 146.82Z" fill="#D87355"/>
<path d="M115.205 114.53H139.869V89.8765H115.205V114.53ZM140 114.79H115.075C115.003 114.79 114.945 114.731 114.945 114.66V89.7464C114.945 89.6749 115.003 89.6163 115.075 89.6163H140C140.072 89.6163 140.13 89.6749 140.13 89.7464V114.66C140.13 114.731 140.072 114.79 140 114.79Z" fill="#9E6C5A"/>
<path d="M126.2 110.894L118.397 103.8L120.807 100.828L125.755 104.781L133.519 93.5135L136.678 95.6881L126.2 110.894Z" fill="#9C1C21"/>
<path d="M115.205 82.6679H139.869V58.0147H115.205V82.6679ZM140 82.928H115.075C115.003 82.928 114.945 82.8707 114.945 82.7979V57.8846C114.945 57.8131 115.003 57.7546 115.075 57.7546H140C140.072 57.7546 140.13 57.8131 140.13 57.8846V82.7979C140.13 82.8707 140.072 82.928 140 82.928Z" fill="#9E6C5A"/>
<path d="M155.541 44.9585H180.205V20.3053H155.541V44.9585ZM180.335 45.2186H155.411C155.339 45.2186 155.281 45.1613 155.281 45.0885V20.1752C155.281 20.1037 155.339 20.0452 155.411 20.0452H180.335C180.408 20.0452 180.465 20.1037 180.465 20.1752V45.0885C180.465 45.1613 180.408 45.2186 180.335 45.2186Z" fill="#9E6C5A"/>
<path d="M126.2 79.0331L118.397 71.9373L120.807 68.9656L125.755 72.9206L133.519 61.6513L136.678 63.8258L126.2 79.0331Z" fill="#9C1C21"/>
<path d="M166.47 41.5959L158.667 34.5002L161.077 31.5284L166.025 35.4834L173.789 24.2141L176.947 26.3886L166.47 41.5959Z" fill="#9C1C21"/>
<path d="M182.805 45.2303H207.469V20.5772H182.805V45.2303ZM207.599 45.4904H182.674C182.603 45.4904 182.544 45.4332 182.544 45.3604V20.4471C182.544 20.3756 182.603 20.317 182.674 20.317H207.599C207.672 20.317 207.729 20.3756 207.729 20.4471V45.3604C207.729 45.4332 207.672 45.4904 207.599 45.4904Z" fill="#9E6C5A"/>
<path d="M193.8 41.5955L185.997 34.4997L188.407 31.5279L193.355 35.4829L201.119 24.2137L204.277 26.3882L193.8 41.5955Z" fill="#9C1C21"/>
<path d="M146.197 28.1616H116.003V25.3519H146.197V28.1616Z" fill="#9C1C21"/>
<path d="M154.399 34.656H116.003V31.8477H154.399V34.656Z" fill="#9C1C21"/>
<path d="M154.399 41.1505H116.003V38.3409H154.399V41.1505Z" fill="#9C1C21"/>
<path d="M208.414 47.4155H115.156C115.085 47.4155 115.026 47.3582 115.026 47.2854C115.026 47.2138 115.085 47.1553 115.156 47.1553H208.414C208.485 47.1553 208.544 47.2138 208.544 47.2854C208.544 47.3582 208.485 47.4155 208.414 47.4155Z" fill="#9E6C5A"/>
<path d="M118.346 213.85C116.453 211.285 114.548 208.73 112.633 206.181C110.953 203.943 109.287 201.725 107.311 199.735C103.769 196.173 99.6235 193.259 95.2422 190.823C86.3841 185.896 76.601 182.839 66.8231 180.332C57.4933 177.941 47.5475 176.972 38.123 179.418C31.8297 181.053 26.2192 184.204 21.3828 188.356C42.5875 218.388 77.563 238 117.12 238C123.075 238 128.926 237.554 134.642 236.697C129.36 228.976 123.903 221.375 118.346 213.85Z" fill="#8B865C"/>
<path d="M88.0197 83.0269C84.6734 76.1821 82.1194 72.4873 77.7169 70.9982C71.8004 68.9979 66.1414 72.9061 65.5568 73.3222C65.1836 73.5888 59.6496 77.0522 59.4033 83.6174C59.1602 90.1006 62.3587 96.4863 67.8864 99.7702L69.4916 114.012C70.007 118.585 74.1313 121.874 78.7036 121.359L79.7393 121.242C84.3116 120.727 87.5997 116.602 87.0847 112.029L86.0126 102.514C88.8859 101.945 91.0862 100.846 91.8405 99.2733C93.1904 96.4551 91.9601 91.0864 88.0197 83.0269Z" fill="#E2A18D"/>
<path d="M86.1162 102.405C86.0522 102.405 85.9965 102.358 85.9874 102.293L85.5022 98.8191C85.4923 98.7489 85.5419 98.6826 85.6129 98.6735C85.6834 98.6618 85.7499 98.7125 85.7598 98.784L86.2451 102.256C86.255 102.328 86.2054 102.393 86.1343 102.403C86.1282 102.405 86.122 102.405 86.1162 102.405Z" fill="#363E44"/>
<path d="M80.1944 92.5247C80.1641 92.5247 80.1337 92.5143 80.109 92.4935C79.6642 92.1046 79.2704 91.7481 78.8534 91.3709C78.5139 91.0639 78.1641 90.7466 77.7693 90.398C77.7154 90.3498 77.7104 90.2679 77.758 90.2146C77.8056 90.1599 77.8882 90.1547 77.9415 90.2028C78.3372 90.5527 78.6878 90.8701 79.0279 91.1784C79.444 91.5543 79.837 91.9107 80.28 92.2971C80.3341 92.3439 80.3396 92.4258 80.2924 92.4805C80.2667 92.5104 80.2307 92.5247 80.1944 92.5247Z" fill="#363E44"/>
<path d="M50.8558 87.745C49.6122 84.1334 51.5315 80.1979 55.1428 78.9533C55.1484 78.952 55.1541 78.9507 55.1598 78.9481C54.5848 78.3459 54.1234 77.6189 53.8345 76.7801C52.7636 73.6692 54.4165 70.2799 57.5264 69.2096C58.1762 68.9859 58.8374 68.8871 59.4875 68.8897C58.6365 65.8724 60.2732 62.6808 63.2743 61.6469C64.9701 61.063 66.7464 61.2932 68.1871 62.1242C68.7272 59.9068 70.3482 58.0015 72.6661 57.2029C76.1722 55.996 79.9833 57.7622 81.3526 61.1631C81.5146 61.0903 81.6793 61.0226 81.8504 60.9641C84.9603 59.8925 88.3499 61.5455 89.4201 64.6551C90.4917 67.766 88.8388 71.1552 85.7286 72.2256C85.639 72.2568 85.5483 72.2776 85.4581 72.3036C86.918 77.9363 81.315 80.5504 80.9982 80.7532C82.5057 83.0487 84.0129 85.3455 85.5203 87.6409C84.6512 88.2392 83.6336 89.0169 82.7645 89.6139C81.3166 87.1558 79.9284 86.4795 78.3644 86.7149C75.9012 87.0869 74.4439 89.9429 74.9945 92.293C75.4973 94.4376 76.9747 96.3624 79.3486 96.8592C77.0125 97.7046 74.5432 98.5213 71.9435 99.286C70.5872 99.6853 69.2542 100.053 67.9478 100.391C67.0009 100.144 60.8772 98.4329 57.7428 92.3996C54.7442 92.5518 51.8824 90.7258 50.8558 87.745Z" fill="#363E44"/>
<path d="M7.13892 182.86C36.5122 189.396 53.9081 193.541 60.3661 194.895C61.0425 195.037 62.2349 195.292 63.817 195.192C69.6791 194.821 71.4953 190.16 77.4814 186.957C84.2736 183.323 90.1557 185.123 90.5627 183.198C90.8475 181.858 88.8188 180.555 84.0521 179.62C84.0517 179.619 84.0517 179.619 84.0521 179.619C87.7563 179.914 92.7956 180.094 92.953 178.047C93.0076 175.673 87.1113 174.765 83.5167 174.391C87.8669 174.845 90.317 173.783 90.1193 172.621C89.8098 170.79 86.517 169.652 80.7446 169.276C80.7444 169.276 80.7444 169.276 80.7445 169.276C84.8033 168.421 85.6606 167.61 85.2358 166.624C84.4602 164.824 79.7082 164.604 75.4775 165.053C70.7147 165.559 67.1964 167.605 65.0088 168.947C65.0082 168.947 65.0075 168.947 65.0068 168.947C44.9089 162.236 31.588 157.919 15.4667 152.168C12.1685 150.993 7.13814 182.86 7.13892 182.86Z" fill="#E2A18D"/>
<path d="M28.3488 121.412C1.63103 152.449 -6.64694 175.967 5.4159 182.315C12.251 185.911 32.5875 171.52 51.8137 145.368C43.4717 137.747 38.6713 130.372 28.3488 121.412Z" fill="#E2A18D"/>
<path d="M127.335 124.685C160.704 131.78 186.909 138.972 184.047 149.679C177.989 172.343 152.816 160.694 130.44 160.495C129.599 151.304 128.115 135.826 127.335 124.685Z" fill="#E2A18D"/>
<path d="M155.481 145.885C155.481 145.885 147.055 123.22 143.436 110.891C139.636 97.9429 135.91 78.2721 138.669 77.787C140.24 77.51 141.302 80.0877 143.685 87.1666C143.923 86.688 144.875 85.4381 146.374 85.4199C148.593 85.3939 149.231 87.1601 149.351 87.2953C149.418 87.1263 150.195 85.3289 151.676 85.0597C153.346 84.7567 154.599 85.5279 155.335 86.6386C155.516 86.225 156.336 84.7671 157.767 84.5499C159.241 84.3275 160.94 85.165 161.357 86.6633C162.119 89.4113 164.229 97.6217 165.743 101.493C168.722 109.111 182.933 134.741 184.328 146.888C174.008 144.547 155.481 145.885 155.481 145.885Z" fill="#E2A18D"/>
<path d="M158.319 90.5557C158.255 90.5557 158.199 90.5089 158.19 90.4452C158.179 90.3736 158.229 90.3073 158.3 90.2969L160.685 89.9509C160.756 89.9405 160.822 89.9886 160.832 90.0601C160.843 90.1317 160.793 90.198 160.723 90.2071L158.337 90.5544C158.332 90.5557 158.325 90.5557 158.319 90.5557Z" fill="#363E44"/>
<path d="M152.256 91.4566C152.191 91.4566 152.135 91.4085 152.128 91.3421C152.12 91.2706 152.17 91.2055 152.242 91.1977L154.951 90.8908C155.022 90.883 155.086 90.935 155.094 91.0052C155.102 91.0768 155.051 91.1418 154.979 91.1496L152.271 91.4566C152.267 91.4566 152.261 91.4566 152.256 91.4566Z" fill="#363E44"/>
<path d="M146.373 92.0798C146.309 92.0798 146.253 92.033 146.244 91.9679C146.233 91.8977 146.283 91.8314 146.353 91.821C146.798 91.7559 147.201 91.7 147.603 91.6441C148.005 91.5881 148.406 91.5335 148.851 91.4684C148.921 91.4567 148.989 91.5062 148.999 91.5777C149.01 91.6493 148.96 91.7143 148.889 91.7247C148.444 91.791 148.041 91.8457 147.638 91.9016C147.237 91.9575 146.836 92.0135 146.391 92.0785C146.384 92.0785 146.378 92.0798 146.373 92.0798Z" fill="#363E44"/>
<path d="M141.568 93.2012C141.509 93.2012 141.455 93.1596 141.442 93.0997C141.427 93.0295 141.471 92.9592 141.541 92.9436L143.878 92.4259C143.948 92.409 144.017 92.4545 144.033 92.5248C144.048 92.595 144.004 92.664 143.934 92.6796L141.597 93.1973C141.588 93.1999 141.578 93.2012 141.568 93.2012Z" fill="#363E44"/>
<path d="M16.8434 128.228C20.4355 121.47 26.5282 116.369 33.8335 114.092C43.1372 111.191 57.2607 108.384 74.177 110.18C105.722 113.53 141.439 124.685 141.439 124.685V170.825L118.441 166.031L113.411 203.719L19.3547 187.702L23.3695 161.145L7.13892 146.482L16.8434 128.228Z" fill="#363E44"/>
<path d="M231.755 59.1646C228.388 54.9352 222.23 54.2355 218 57.6026C213.771 60.971 213.072 67.1291 216.439 71.3585C219.806 75.5892 225.965 76.2876 230.194 72.9205C234.423 69.5521 235.123 63.3939 231.755 59.1646Z" fill="#EFBC73"/>
<path d="M229.512 60.9502C227.131 57.9589 222.775 57.4647 219.784 59.846C216.795 62.2273 216.3 66.5828 218.682 69.5728C221.063 72.564 225.417 73.0583 228.408 70.677C231.398 68.2957 231.892 63.9414 229.512 60.9502Z" fill="#E0AA63"/>
<path d="M224.374 53.0768C222.264 53.0768 220.142 53.7622 218.367 55.1746C216.348 56.7821 215.077 59.0788 214.787 61.6422C214.495 64.2056 215.22 66.7299 216.827 68.7484C218.434 70.7668 220.731 72.0388 223.294 72.3288C225.857 72.6201 228.38 71.8957 230.399 70.2882C232.417 68.6808 233.689 66.384 233.98 63.8206C234.271 61.2572 233.547 58.7342 231.94 56.7157C230.036 54.3227 227.216 53.0768 224.374 53.0768ZM224.402 72.6526C224.025 72.6526 223.645 72.6305 223.264 72.5876C220.632 72.2885 218.273 70.9827 216.624 68.9096C214.974 66.8366 214.229 64.2459 214.528 61.6136C214.827 58.98 216.133 56.6221 218.206 54.9717C222.484 51.5643 228.737 52.2744 232.143 56.5532C233.793 58.6262 234.538 61.2169 234.239 63.8505C233.94 66.4828 232.634 68.842 230.561 70.4911C228.789 71.9035 226.635 72.6526 224.402 72.6526Z" fill="white"/>
<path d="M200.022 59.6909C197.03 55.9337 191.559 55.312 187.8 58.3046C184.043 61.2958 183.422 66.7685 186.414 70.5271C189.405 74.2844 194.877 74.906 198.636 71.9135C202.393 68.9222 203.014 63.4495 200.022 59.6909Z" fill="#EFBC73"/>
<path d="M198.03 61.2791C195.914 58.6207 192.045 58.1825 189.387 60.2971C186.73 62.4131 186.29 66.2822 188.406 68.9406C190.522 71.5976 194.391 72.0372 197.048 69.9212C199.706 67.8052 200.144 63.9361 198.03 61.2791Z" fill="#E0AA63"/>
<path d="M193.463 54.2963C191.593 54.2963 189.71 54.9049 188.137 56.1586C184.441 59.1005 183.827 64.5016 186.77 68.1978C189.713 71.8939 195.114 72.5065 198.808 69.5634C200.599 68.138 201.728 66.1013 201.985 63.8266C202.243 61.5533 201.6 59.3151 200.175 57.5242C198.486 55.403 195.986 54.2963 193.463 54.2963ZM193.482 71.6859C190.883 71.6859 188.307 70.5466 186.567 68.359C183.534 64.551 184.166 58.986 187.974 55.9544C191.782 52.9229 197.347 53.5536 200.378 57.3629C201.848 59.2071 202.509 61.513 202.244 63.8566C201.978 66.1988 200.815 68.2992 198.971 69.7675C197.349 71.059 195.409 71.6859 193.482 71.6859Z" fill="white"/>
<path d="M199.52 96.5262C196.153 92.2968 189.994 91.5984 185.765 94.9656C181.536 98.3327 180.837 104.492 184.205 108.721C187.572 112.951 193.731 113.651 197.96 110.282C202.189 106.915 202.887 100.757 199.52 96.5262Z" fill="#EFBC73"/>
<path d="M197.278 98.3132C194.898 95.3219 190.543 94.8277 187.552 97.209C184.562 99.5903 184.068 103.945 186.449 106.936C188.829 109.927 193.184 110.421 196.175 108.04C199.165 105.659 199.659 101.303 197.278 98.3132Z" fill="#E0AA63"/>
<path d="M192.141 90.4382C190.031 90.4382 187.909 91.1235 186.134 92.5372C184.115 94.1434 182.844 96.4415 182.554 99.0049C182.262 101.568 182.987 104.091 184.594 106.11C186.2 108.128 188.498 109.4 191.061 109.691C193.624 109.983 196.147 109.257 198.166 107.651C200.184 106.043 201.456 103.747 201.747 101.183C202.038 98.6199 201.313 96.0955 199.707 94.0771C197.801 91.6854 194.983 90.4382 192.141 90.4382ZM192.169 110.014C191.792 110.014 191.412 109.993 191.031 109.95C188.399 109.651 186.04 108.345 184.39 106.272C182.739 104.199 181.996 101.607 182.295 98.9749C182.594 96.3426 183.9 93.9834 185.972 92.333C190.251 88.9269 196.504 89.637 199.909 93.9158C201.56 95.9876 202.304 98.5796 202.006 101.212C201.707 103.845 200.401 106.203 198.328 107.854C196.556 109.266 194.402 110.014 192.169 110.014Z" fill="white"/>
<path d="M223.413 207.136L178.379 191.312L191.232 154.733L236.265 170.557L223.413 207.136Z" fill="#84524D"/>
<path d="M215.867 201.764L221.564 203.766L223.566 198.068L217.868 196.067L215.867 201.764Z" fill="white"/>
<path d="M236.247 170.606L191.213 154.782L192.966 142.931L238 158.757L236.247 170.606Z" fill="#84524D"/>
<path d="M232.759 166.529L194.93 153.236L195.9 146.671L233.729 159.964L232.759 166.529Z" fill="#FFD092"/>
<path d="M218.939 193.019L224.638 195.022L226.639 189.323L220.942 187.321L218.939 193.019Z" fill="white"/>
<path d="M222.012 184.274L227.709 186.277L229.712 180.58L224.013 178.577L222.012 184.274Z" fill="#FFD092"/>
<path d="M225.084 175.53L230.783 177.533L232.785 171.835L227.087 169.832L225.084 175.53Z" fill="#FFD092"/>
<path d="M207.354 198.773L213.052 200.775L215.053 195.077L209.356 193.075L207.354 198.773Z" fill="white"/>
<path d="M210.425 190.029L216.124 192.03L218.125 186.332L212.428 184.331L210.425 190.029Z" fill="white"/>
<path d="M213.498 181.283L219.195 183.285L221.198 177.587L215.499 175.585L213.498 181.283Z" fill="white"/>
<path d="M216.572 172.538L222.269 174.54L224.271 168.842L218.573 166.841L216.572 172.538Z" fill="white"/>
<path d="M198.84 195.78L204.537 197.783L206.539 192.085L200.841 190.082L198.84 195.78Z" fill="white"/>
<path d="M201.91 187.036L207.609 189.039L209.61 183.341L203.913 181.338L201.91 187.036Z" fill="white"/>
<path d="M204.985 178.292L210.682 180.293L212.685 174.596L206.986 172.593L204.985 178.292Z" fill="white"/>
<path d="M208.057 169.547L213.755 171.549L215.756 165.851L210.059 163.848L208.057 169.547Z" fill="white"/>
<path d="M190.325 192.789L196.023 194.791L198.024 189.093L192.327 187.092L190.325 192.789Z" fill="white"/>
<path d="M193.396 184.044L199.094 186.046L201.096 180.348L195.398 178.346L193.396 184.044Z" fill="white"/>
<path d="M196.47 175.299L202.168 177.302L204.17 171.603L198.472 169.602L196.47 175.299Z" fill="white"/>
<path d="M199.543 166.555L205.24 168.558L207.241 162.859L201.544 160.857L199.543 166.555Z" fill="white"/>
<path d="M181.811 189.798L187.508 191.8L192.448 177.737L186.751 175.736L181.811 189.798Z" fill="#FFD092"/>
<path d="M187.956 172.308L193.653 174.31L195.656 168.612L189.957 166.611L187.956 172.308Z" fill="#FFD092"/>
<path d="M191.028 163.563L196.725 165.565L198.727 159.867L193.029 157.866L191.028 163.563Z" fill="white"/>
</svg>
