<svg width="41" height="41" viewBox="0 0 41 41" fill="none" xmlns="http://www.w3.org/2000/svg">
<path d="M20.0029 37.6158C15.3616 37.6158 10.9104 35.772 7.62856 32.4902C4.34667 29.2083 2.50293 24.7571 2.50293 20.1158C2.50293 15.4745 4.34667 11.0233 7.62856 7.74141C10.9104 4.45953 15.3616 2.61578 20.0029 2.61578C24.6442 2.61578 29.0954 4.45953 32.3773 7.74141C35.6592 11.0233 37.5029 15.4745 37.5029 20.1158C37.5029 24.7571 35.6592 29.2083 32.3773 32.4902C29.0954 35.772 24.6442 37.6158 20.0029 37.6158ZM20.0029 40.1158C25.3073 40.1158 30.3943 38.0086 34.1451 34.2579C37.8958 30.5072 40.0029 25.4201 40.0029 20.1158C40.0029 14.8115 37.8958 9.72438 34.1451 5.97365C30.3943 2.22292 25.3073 0.115784 20.0029 0.115784C14.6986 0.115784 9.61152 2.22292 5.86079 5.97365C2.11007 9.72438 0.00292969 14.8115 0.00292969 20.1158C0.00292969 25.4201 2.11007 30.5072 5.86079 34.2579C9.61152 38.0086 14.6986 40.1158 20.0029 40.1158V40.1158Z" fill="white"/>
<path d="M20.0029 10.1158C20.3345 10.1158 20.6524 10.2475 20.8868 10.4819C21.1212 10.7163 21.2529 11.0343 21.2529 11.3658V18.8658H28.7529C29.0845 18.8658 29.4024 18.9975 29.6368 19.2319C29.8712 19.4663 30.0029 19.7843 30.0029 20.1158C30.0029 20.4473 29.8712 20.7652 29.6368 20.9997C29.4024 21.2341 29.0845 21.3658 28.7529 21.3658H21.2529V28.8658C21.2529 29.1973 21.1212 29.5152 20.8868 29.7497C20.6524 29.9841 20.3345 30.1158 20.0029 30.1158C19.6714 30.1158 19.3535 29.9841 19.119 29.7497C18.8846 29.5152 18.7529 29.1973 18.7529 28.8658V21.3658H11.2529C10.9214 21.3658 10.6035 21.2341 10.369 20.9997C10.1346 20.7652 10.0029 20.4473 10.0029 20.1158C10.0029 19.7843 10.1346 19.4663 10.369 19.2319C10.6035 18.9975 10.9214 18.8658 11.2529 18.8658H18.7529V11.3658C18.7529 11.0343 18.8846 10.7163 19.119 10.4819C19.3535 10.2475 19.6714 10.1158 20.0029 10.1158V10.1158Z" fill="white"/>
</svg>
