<svg width="25" height="25" viewBox="0 0 25 25" fill="none" xmlns="http://www.w3.org/2000/svg">
<path fill-rule="evenodd" clip-rule="evenodd" d="M13.7184 16.0651C15.1279 16.0653 16.2751 17.1513 16.275 18.4861L16.2745 21.9189C16.2745 22.2057 16.5156 22.4357 16.8247 22.4424L19.0561 22.4427C20.8146 22.4429 22.2442 21.0972 22.2444 19.4433L22.2456 9.70722C22.2375 9.13805 21.9531 8.60233 21.4649 8.24627L13.747 2.37733C12.711 1.59488 11.2617 1.5947 10.222 2.37912L2.55527 8.24165C2.0483 8.60875 1.76374 9.1444 1.75782 9.72361L1.75659 19.4407C1.75638 21.0946 3.18568 22.4407 4.94411 22.4409L7.1966 22.4412C7.51387 22.4412 7.77146 22.2013 7.7715 21.9067C7.77151 21.842 7.77971 21.7772 7.79377 21.7159L7.79417 18.485C7.79434 17.1581 8.93477 16.0735 10.3338 16.0647L13.7184 16.0651ZM19.0559 24.1167L16.8034 24.1164C15.5133 24.0872 14.5183 23.1218 14.5184 21.9187L14.5189 18.4859C14.5189 18.0741 14.1595 17.7392 13.7182 17.7392L10.3394 17.7387C9.90744 17.7409 9.55032 18.0768 9.55027 18.4852L9.54984 21.9069C9.54983 21.9906 9.53811 22.071 9.51352 22.1469C9.38694 23.2517 8.39639 24.1153 7.19639 24.1152L4.9439 24.1149C2.21727 24.1146 0.000168119 22.0173 0.000493014 19.4405L0.00171914 9.71557C0.0135663 8.60626 0.54989 7.59076 1.47602 6.92239L9.12749 1.0699C10.8123 -0.202131 13.1597 -0.201836 14.8407 1.06839L22.5457 6.9284C23.4506 7.58584 23.9866 8.59924 24.0017 9.69516L24.0005 19.4435C24.0002 22.0203 21.7825 24.117 19.0559 24.1167Z" fill="white"/>
</svg>
