<svg width="230" height="172" viewBox="0 0 230 172" fill="none" xmlns="http://www.w3.org/2000/svg">
<path d="M0 151.268H230V151.152H0V151.268Z" fill="#ECECEC"/>
<path d="M20.2019 0.11554C18.8173 0.11554 17.6912 1.24602 17.6912 2.635V127.931C17.6912 129.32 18.8173 130.45 20.2019 130.45H109.027C110.411 130.45 111.538 129.32 111.538 127.931V2.635C111.538 1.24602 110.411 0.11554 109.027 0.11554H20.2019ZM109.027 130.565H20.2019C18.7542 130.565 17.5762 129.383 17.5762 127.931V2.635C17.5762 1.18279 18.7542 0.000137329 20.2019 0.000137329H109.027C110.475 0.000137329 111.653 1.18279 111.653 2.635V127.931C111.653 129.383 110.475 130.565 109.027 130.565Z" fill="#ECECEC"/>
<path d="M119.697 0.11554C118.313 0.11554 117.187 1.24602 117.187 2.635V127.931C117.187 129.32 118.313 130.45 119.697 130.45H208.523C209.907 130.45 211.034 129.32 211.034 127.931V2.635C211.034 1.24602 209.907 0.11554 208.523 0.11554H119.697ZM208.523 130.565H119.697C118.25 130.565 117.072 129.383 117.072 127.931V2.635C117.072 1.18279 118.25 0.000137329 119.697 0.000137329H208.523C209.971 0.000137329 211.149 1.18279 211.149 2.635V127.931C211.149 129.383 209.971 130.565 208.523 130.565Z" fill="#ECECEC"/>
<path d="M194.996 158.582H206.955V158.698H194.996V158.582Z" fill="#ECECEC"/>
<path d="M143.061 159.835H163.773V159.951H143.061V159.835Z" fill="#ECECEC"/>
<path d="M166.572 154.296H194.537V154.411H166.572V154.296Z" fill="#ECECEC"/>
<path d="M24.1328 155.072H32.9805V155.187H24.1328V155.072Z" fill="#ECECEC"/>
<path d="M37.0762 155.072H62.5105V155.187H37.0762V155.072Z" fill="#ECECEC"/>
<path d="M78.0469 157.02H112.302V157.136H78.0469V157.02Z" fill="#ECECEC"/>
<path d="M31.0225 117.282H21.2695V151.152H31.0225V117.282Z" fill="#FAFAFA"/>
<path d="M39.5635 124.711H29.8105V151.152H39.5635V124.711Z" fill="#FAFAFA"/>
<path d="M45.7998 102.922H36.0469V151.152H45.7998V102.922Z" fill="#FAFAFA"/>
<path d="M52.2822 63.8181H42.5293V151.152H52.2822V63.8181Z" fill="#FAFAFA"/>
<path d="M76.4052 70.6161H50.2344V151.153H76.4052V70.6161Z" fill="#FAFAFA"/>
<path d="M178.146 127.971H189.289V151.153H178.146V127.971Z" fill="#FAFAFA"/>
<path d="M168.389 133.055H179.532V151.152H168.389V133.055Z" fill="#FAFAFA"/>
<path d="M161.264 118.143H172.407V151.153H161.264V118.143Z" fill="#FAFAFA"/>
<path d="M153.859 91.379H165.002V151.152H153.859V91.379Z" fill="#FAFAFA"/>
<path d="M125.658 78.1325H159.851V151.153H125.658V78.1325Z" fill="#F0F0F0"/>
<path d="M154.967 81.193H156.595V90.079H154.967V81.193Z" fill="#F5F5F5"/>
<path d="M154.967 95.0884H156.595V103.975H154.967V95.0884Z" fill="#F5F5F5"/>
<path d="M154.967 108.985H156.595V117.871H154.967V108.985Z" fill="#F5F5F5"/>
<path d="M154.967 122.881H156.595V131.767H154.967V122.881Z" fill="#F5F5F5"/>
<path d="M154.967 136.777H156.595V145.663H154.967V136.777Z" fill="#F5F5F5"/>
<path d="M149.197 81.193H150.826V90.079H149.197V81.193Z" fill="#F5F5F5"/>
<path d="M149.197 95.0884H150.826V103.975H149.197V95.0884Z" fill="#F5F5F5"/>
<path d="M149.197 108.985H150.826V117.871H149.197V108.985Z" fill="#F5F5F5"/>
<path d="M149.197 122.881H150.826V131.767H149.197V122.881Z" fill="#F5F5F5"/>
<path d="M149.197 136.777H150.826V145.663H149.197V136.777Z" fill="#F5F5F5"/>
<path d="M143.428 81.193H145.056V90.079H143.428V81.193Z" fill="#F5F5F5"/>
<path d="M143.428 95.0884H145.056V103.975H143.428V95.0884Z" fill="#F5F5F5"/>
<path d="M143.428 108.985H145.056V117.871H143.428V108.985Z" fill="#F5F5F5"/>
<path d="M143.428 122.881H145.056V131.767H143.428V122.881Z" fill="#F5F5F5"/>
<path d="M143.428 136.777H145.056V145.663H143.428V136.777Z" fill="#F5F5F5"/>
<path d="M137.658 81.193H139.287V90.079H137.658V81.193Z" fill="#F5F5F5"/>
<path d="M137.658 95.0884H139.287V103.975H137.658V95.0884Z" fill="#F5F5F5"/>
<path d="M137.658 108.985H139.287V117.871H137.658V108.985Z" fill="#F5F5F5"/>
<path d="M137.658 122.881H139.287V131.767H137.658V122.881Z" fill="#F5F5F5"/>
<path d="M137.658 136.777H139.287V145.663H137.658V136.777Z" fill="#F5F5F5"/>
<path d="M131.889 81.193H133.517V90.079H131.889V81.193Z" fill="#F5F5F5"/>
<path d="M131.889 95.0884H133.517V103.975H131.889V95.0884Z" fill="#F5F5F5"/>
<path d="M131.889 108.985H133.517V117.871H131.889V108.985Z" fill="#F5F5F5"/>
<path d="M131.889 122.881H133.517V131.767H131.889V122.881Z" fill="#F5F5F5"/>
<path d="M131.889 136.777H133.517V145.663H131.889V136.777Z" fill="#F5F5F5"/>
<g opacity="0.5">
<path d="M125.658 78.1325H132.703L135.767 151.153H125.658V78.1325Z" fill="#E1E1E1"/>
</g>
<path d="M108.85 49.918L129.127 53.7688V151.153H108.85V49.918Z" fill="#F0F0F0"/>
<path d="M108.851 49.918H92.6289V151.153H108.851V49.918Z" fill="#E7E7E7"/>
<path d="M92.6289 58.8244H129.129V58.3056H92.6289V58.8244Z" fill="#E1E1E1"/>
<path d="M92.6289 64.3365H129.129V63.8176H92.6289V64.3365Z" fill="#E1E1E1"/>
<path d="M92.6289 69.849H129.129V69.3302H92.6289V69.849Z" fill="#E1E1E1"/>
<path d="M92.6289 75.3611H129.129V74.8418H92.6289V75.3611Z" fill="#E1E1E1"/>
<path d="M92.6289 80.8731H129.129V80.3539H92.6289V80.8731Z" fill="#E1E1E1"/>
<path d="M92.6289 86.3852H129.129V85.8664H92.6289V86.3852Z" fill="#E1E1E1"/>
<path d="M92.6289 91.8973H129.129V91.3784H92.6289V91.8973Z" fill="#E1E1E1"/>
<path d="M92.6289 97.4098H129.129V96.891H92.6289V97.4098Z" fill="#E1E1E1"/>
<path d="M92.6289 102.922H129.129V102.403H92.6289V102.922Z" fill="#E1E1E1"/>
<path d="M92.6289 108.434H129.129V107.915H92.6289V108.434Z" fill="#E1E1E1"/>
<path d="M92.6289 113.946H129.129V113.427H92.6289V113.946Z" fill="#E1E1E1"/>
<path d="M92.6289 119.458H129.129V118.939H92.6289V119.458Z" fill="#E1E1E1"/>
<path d="M92.6289 124.971H129.129V124.452H92.6289V124.971Z" fill="#E1E1E1"/>
<path d="M92.6289 130.483H129.129V129.964H92.6289V130.483Z" fill="#E1E1E1"/>
<path d="M92.6289 135.995H129.129V135.477H92.6289V135.995Z" fill="#E1E1E1"/>
<path d="M92.6289 141.507H129.129V140.988H92.6289V141.507Z" fill="#E1E1E1"/>
<path d="M92.6289 147.019H129.129V146.5H92.6289V147.019Z" fill="#E1E1E1"/>
<path d="M83.7556 28.4025H66.7949V151.152H83.7556V28.4025Z" fill="#F0F0F0"/>
<path d="M83.7556 28.4026H66.7949L73.0362 17.5636H97.3242L83.7556 28.4026Z" fill="#FAFAFA"/>
<path d="M83.7559 28.4026L97.3245 17.5636V151.152H83.7559V28.4026Z" fill="#ECECEC"/>
<path d="M97.3242 34.7754H66.7949V34.1212H97.3242V34.7754Z" fill="#E1E1E1"/>
<path d="M97.3242 41.7236H66.7949V41.0694H97.3242V41.7236Z" fill="#E1E1E1"/>
<path d="M97.3242 48.6717H66.7949V48.0175H97.3242V48.6717Z" fill="#E1E1E1"/>
<path d="M97.3242 55.6194H66.7949V54.9652H97.3242V55.6194Z" fill="#E1E1E1"/>
<path d="M97.3242 62.5671H66.7949V61.9129H97.3242V62.5671Z" fill="#E1E1E1"/>
<path d="M97.3242 69.5152H66.7949V68.861H97.3242V69.5152Z" fill="#E1E1E1"/>
<path d="M97.3242 76.4634H66.7949V75.8092H97.3242V76.4634Z" fill="#E1E1E1"/>
<path d="M97.3242 83.411H66.7949V82.7568H97.3242V83.411Z" fill="#E1E1E1"/>
<path d="M97.3242 90.3593H66.7949V89.7051H97.3242V90.3593Z" fill="#E1E1E1"/>
<path d="M97.3242 97.3074H66.7949V96.6532H97.3242V97.3074Z" fill="#E1E1E1"/>
<path d="M97.3242 104.255H66.7949V103.601H97.3242V104.255Z" fill="#E1E1E1"/>
<path d="M97.3242 111.203H66.7949V110.549H97.3242V111.203Z" fill="#E1E1E1"/>
<path d="M97.3242 118.151H66.7949V117.497H97.3242V118.151Z" fill="#E1E1E1"/>
<path d="M97.3242 125.099H66.7949V124.445H97.3242V125.099Z" fill="#E1E1E1"/>
<path d="M97.3242 132.047H66.7949V131.393H97.3242V132.047Z" fill="#E1E1E1"/>
<path d="M97.3242 138.995H66.7949V138.341H97.3242V138.995Z" fill="#E1E1E1"/>
<path d="M97.3242 145.943H66.7949V145.289H97.3242V145.943Z" fill="#E1E1E1"/>
<path d="M63.8466 87.8001H45.332V151.152H63.8466V87.8001Z" fill="#F0F0F0"/>
<path d="M51.9477 91.0751H48.9766V101.243H51.9477V91.0751Z" fill="#E7E7E7"/>
<path d="M59.2368 91.0751H56.2656V101.243H59.2368V91.0751Z" fill="#E7E7E7"/>
<path d="M51.9477 104.243H48.9766V114.41H51.9477V104.243Z" fill="#E7E7E7"/>
<path d="M59.2368 104.243H56.2656V114.41H59.2368V104.243Z" fill="#E7E7E7"/>
<path d="M51.9477 117.41H48.9766V127.578H51.9477V117.41Z" fill="#E7E7E7"/>
<path d="M59.2368 117.41H56.2656V127.578H59.2368V117.41Z" fill="#E7E7E7"/>
<path d="M51.9477 130.577H48.9766V140.745H51.9477V130.577Z" fill="#E7E7E7"/>
<path d="M59.2368 130.577H56.2656V140.745H59.2368V130.577Z" fill="#E7E7E7"/>
<path d="M63.8466 87.8001H45.332L49.6749 83.4112H68.1894L63.8466 87.8001Z" fill="white"/>
<path d="M63.8457 87.8002L68.1886 83.4112L72.5314 87.8002V151.152H63.8457V87.8002Z" fill="#E7E7E7"/>
<path d="M85.6601 64.7134C112.743 36.299 107.405 -9.45715 147.409 20.223C167.766 35.3259 188.739 27.6253 191.183 48.4869C192.861 62.8083 178.483 90.3105 168.619 100.333C153.761 115.431 138.024 111.9 120.187 109.479C100.001 106.739 87.4854 117.728 68.613 119.297C54.841 120.443 35.6926 106.512 39.0777 89.3209C43.2251 68.2567 74.1201 76.8209 85.6601 64.7134Z" fill="#A61E22"/>
<g opacity="0.899994">
<path d="M85.6601 64.7134C112.743 36.299 107.405 -9.45715 147.409 20.223C167.766 35.3259 188.739 27.6253 191.183 48.4869C192.861 62.8083 178.483 90.3105 168.619 100.333C153.761 115.431 138.024 111.9 120.187 109.479C100.001 106.739 87.4854 117.728 68.613 119.297C54.841 120.443 35.6926 106.512 39.0777 89.3209C43.2251 68.2567 74.1201 76.8209 85.6601 64.7134Z" fill="white"/>
</g>
<path d="M204.188 166.773C204.188 169.66 164.257 172 114.999 172C65.7418 172 25.8105 169.66 25.8105 166.773C25.8105 163.886 65.7418 161.546 114.999 161.546C164.257 161.546 204.188 163.886 204.188 166.773Z" fill="#F5F5F5"/>
<g opacity="0.899994">
<path d="M126.203 147.681H193.414V144.03H126.203V147.681Z" fill="white"/>
<path d="M126.203 123.069V127.25L193.414 104.428V100.248L126.203 123.069Z" fill="white"/>
</g>
<path d="M181.696 152.489H101.682V127.459H172.215L178.796 132.826C180.631 134.323 181.696 136.569 181.696 138.941V152.489Z" fill="#A61E22"/>
<g opacity="0.5">
<path d="M181.696 152.489H101.682V127.459H172.215L178.796 132.826C180.631 134.323 181.696 136.569 181.696 138.941V152.489Z" fill="black"/>
</g>
<path d="M101.223 150.232C101.223 141.097 105.351 133.691 110.442 133.691H100.662C95.5709 133.691 91.4434 141.097 91.4434 150.232C91.4434 159.367 95.5709 166.773 100.662 166.773H110.442C105.351 166.773 101.223 159.367 101.223 150.232Z" fill="#1A2E35"/>
<path d="M119.66 150.232C119.66 141.097 115.533 133.691 110.441 133.691C105.35 133.691 101.223 141.097 101.223 150.232C101.223 159.368 105.35 166.773 110.441 166.773C115.533 166.773 119.66 159.368 119.66 150.232Z" fill="#1A2E35"/>
<path d="M117.718 150.232C117.718 143.108 114.792 137.334 111.183 137.334C107.573 137.334 104.646 143.108 104.646 150.232C104.646 157.356 107.573 163.13 111.183 163.13C114.792 163.13 117.718 157.356 117.718 150.232Z" fill="white"/>
<path d="M48.0862 150.232C48.0862 141.097 52.2138 133.691 57.3051 133.691H47.5255C42.4342 133.691 38.3066 141.097 38.3066 150.232C38.3066 159.367 42.4342 166.773 47.5255 166.773H57.3051C52.2138 166.773 48.0862 159.367 48.0862 150.232Z" fill="#1A2E35"/>
<path d="M66.5234 150.232C66.5234 141.097 62.3958 133.691 57.3046 133.691C52.2133 133.691 48.0857 141.097 48.0857 150.232C48.0857 159.368 52.2133 166.773 57.3046 166.773C62.3958 166.773 66.5234 159.368 66.5234 150.232Z" fill="#1A2E35"/>
<path d="M164.395 150.232C164.395 141.097 168.522 133.691 173.614 133.691H163.834C158.742 133.691 154.615 141.097 154.615 150.232C154.615 159.367 158.742 166.773 163.834 166.773H173.614C168.522 166.773 164.395 159.367 164.395 150.232Z" fill="#1A2E35"/>
<path d="M182.832 150.232C182.832 141.097 178.704 133.691 173.613 133.691C168.522 133.691 164.395 141.097 164.395 150.232C164.395 159.368 168.522 166.773 173.613 166.773C178.704 166.773 182.832 159.368 182.832 150.232Z" fill="#1A2E35"/>
<path d="M180.892 150.232C180.892 143.108 177.966 137.334 174.356 137.334C170.747 137.334 167.82 143.108 167.82 150.232C167.82 157.356 170.747 163.13 174.356 163.13C177.966 163.13 180.892 157.356 180.892 150.232Z" fill="white"/>
<path d="M90.3278 154.848H78.503L77.8425 154.185C77.1608 153.502 76.2366 153.117 75.2725 153.117H45.7152C44.7515 153.117 43.8269 153.502 43.1451 154.185L42.7436 154.589H41.6653C38.1587 154.589 35.3164 151.736 35.3164 148.217V138.435H102.398L97.053 150.079C96.0442 152.937 93.35 154.848 90.3278 154.848Z" fill="#A61E22"/>
<g opacity="0.199997">
<path d="M90.3278 154.848H78.503L77.8425 154.185C77.1608 153.502 76.2366 153.117 75.2725 153.117H45.7152C44.7515 153.117 43.8269 153.502 43.1451 154.185L42.7436 154.589H41.6653C38.1587 154.589 35.3164 151.736 35.3164 148.217V138.435H102.398L97.053 150.079C96.0442 152.937 93.35 154.848 90.3278 154.848Z" fill="black"/>
</g>
<path d="M160.154 96.8137C160.114 96.8137 160.074 96.804 160.038 96.7823C159.928 96.7182 159.891 96.5765 159.955 96.4666L163.175 90.9273C163.239 90.817 163.38 90.7796 163.49 90.8442C163.599 90.9083 163.636 91.0501 163.573 91.1599L160.353 96.6992C160.31 96.7726 160.233 96.8137 160.154 96.8137Z" fill="#1A2E35"/>
<path d="M177.136 124.369V118.073C177.136 114.765 172.343 99.1473 165.75 96.2235C159.156 93.3001 143.21 91.9924 133.166 92.5306C123.123 93.0693 109.725 114.15 109.725 114.15L111.182 132.281C113.223 132.281 119.726 131.665 120.68 149.603C120.819 152.224 122.966 154.284 125.581 154.284H160.751C163.195 154.284 165.267 152.482 165.609 150.054C166.511 143.661 168.93 132.278 174.72 132.278C178.783 132.278 181.696 135.768 181.696 139.769C181.696 135.373 180.631 131.042 178.593 127.151L177.136 124.369Z" fill="#A61E22"/>
<path d="M96.3669 92.5307C78.069 92.5307 57.3438 114.15 57.3438 114.15H109.725C109.725 114.15 123.124 93.0694 133.167 92.5307H96.3669Z" fill="#A61E22"/>
<g opacity="0.399994">
<path d="M97.4893 92.5307C82.0761 92.5307 65.9135 107.87 61.2004 112.707C60.676 113.245 61.055 114.15 61.8048 114.15H104.06C107.504 114.15 110.747 112.514 112.783 109.729C117.325 103.516 126.082 92.9107 133.167 92.5307H97.4893Z" fill="white"/>
</g>
<path d="M109.725 114.15L90.3733 129.472L38.3064 129.306C38.3064 129.306 35.3164 133.665 35.3164 138.435H102.397C103.496 135.512 107.349 132.28 111.182 132.28C111.182 126.844 109.725 114.15 109.725 114.15Z" fill="#A61E22"/>
<g opacity="0.199997">
<path d="M97.0615 124.957C96.9502 124.957 96.8518 124.874 96.8347 124.76C96.8154 124.634 96.9019 124.517 97.0275 124.498C102.732 123.63 107.005 120.831 109.585 118.636C111.046 117.393 111.333 115.261 110.252 113.678C110.18 113.573 110.206 113.429 110.312 113.357C110.416 113.285 110.559 113.312 110.631 113.417C111.847 115.196 111.524 117.591 109.882 118.988C107.257 121.222 102.908 124.07 97.0965 124.954C97.085 124.956 97.073 124.957 97.0615 124.957Z" fill="black"/>
</g>
<path d="M38.3066 129.306C38.3066 129.306 47.4533 118.612 57.3433 114.15H109.725L90.3736 129.472L38.3066 129.306Z" fill="#A61E22"/>
<path d="M78.8097 130.306H44.4629V129.305H78.8097V130.306Z" fill="#1A2E35"/>
<path d="M78.0998 127.301L79.9467 125.447C80.3603 125.032 80.8847 124.745 81.4565 124.62L95.3549 121.582C95.8434 121.476 96.3508 121.491 96.832 121.627L97.5744 121.836C99.7359 122.446 100.525 125.11 99.0459 126.805L96.0587 130.231C95.543 130.823 94.8213 131.193 94.0416 131.265L80.5415 132.52C79.639 132.604 78.7461 132.281 78.104 131.64C76.9071 130.444 76.9052 128.499 78.0998 127.301Z" fill="white"/>
<path d="M45.4355 128.28L43.9088 125.424C43.6944 125.023 43.3761 124.688 42.9878 124.454C42.2371 124.003 41.307 123.977 40.5324 124.384L39.3782 124.992C38.8078 125.291 38.374 125.8 38.167 126.413L37.4605 128.503C36.9651 129.968 37.8906 131.53 39.4095 131.794L42.5867 132.344C43.6498 132.528 44.711 132.01 45.223 131.057L45.4337 130.664C45.8329 129.92 45.8339 129.024 45.4355 128.28Z" fill="white"/>
<g opacity="0.399994">
<path d="M120.426 114.765H168.853C170.617 114.765 171.878 113.06 171.372 111.363C170.271 107.667 168.148 101.896 164.975 98.9504C164.622 98.6231 164.187 98.4047 163.718 98.305C158.01 97.0905 148.832 96.2823 142.023 95.8128C135.778 95.3826 129.662 97.7151 125.277 102.198C122.967 104.561 120.477 107.452 118.291 110.753C117.155 112.469 118.373 114.765 120.426 114.765Z" fill="white"/>
</g>
<path d="M89.109 143.846C89.109 145.362 87.5643 146.59 85.659 146.59C83.7537 146.59 82.209 145.362 82.209 143.846C82.209 142.331 83.7537 141.103 85.659 141.103C87.5643 141.103 89.109 142.331 89.109 143.846Z" fill="#1A2E35"/>
<path d="M61.3135 127.21C62.4455 127.21 62.998 128.373 62.5476 129.806C62.0968 131.239 60.8139 132.401 59.6818 132.401C58.5498 132.401 57.9973 131.239 58.4481 129.806C58.8985 128.373 60.1814 127.21 61.3135 127.21Z" fill="#1A2E35"/>
<path d="M38.1003 143.846C38.1003 145.362 37.6656 146.59 37.1293 146.59C36.5929 146.59 36.1582 145.362 36.1582 143.846C36.1582 142.331 36.5929 141.103 37.1293 141.103C37.6656 141.103 38.1003 142.331 38.1003 143.846Z" fill="#1A2E35"/>
<path d="M118.932 114.326V112.77C118.932 110.865 120.677 109.441 122.536 109.83L128.432 111.064C129.82 111.354 130.815 112.582 130.815 114.004V114.326C130.815 115.985 129.475 117.33 127.822 117.33H121.925C120.272 117.33 118.932 115.985 118.932 114.326Z" fill="#1A2E35"/>
<path d="M149.96 96.4571C149.96 96.4571 149.173 96.3781 147.801 96.2563C153.867 108.726 152.321 114.765 152.321 114.765H156.946C156.993 107.174 149.96 96.4571 149.96 96.4571Z" fill="#1A2E35"/>
<g opacity="0.199997">
<path d="M98.8268 109.185C98.6286 111.216 96.9335 112.765 94.8993 112.765H71.0617C69.322 112.765 68.6918 110.82 69.9503 109.367C72.3699 106.574 74.9754 104.129 77.3379 102.129C81.8261 98.3369 87.4018 96.3649 92.6131 96.7282C93.2479 96.7725 93.908 96.821 94.5856 96.8727C96.329 97.0056 97.778 98.2824 98.1433 99.9982C98.9989 104.02 99.0329 107.074 98.8268 109.185Z" fill="#A61E22"/>
</g>
<g opacity="0.199997">
<path d="M152.871 151.001C152.744 151.001 152.641 150.898 152.641 150.771C152.641 146.1 155.013 126.838 155.636 123.949C156.239 121.146 156.241 118.021 155.64 115.985C155.604 115.862 155.673 115.734 155.795 115.698C155.917 115.662 156.045 115.732 156.081 115.854C156.702 117.958 156.704 121.174 156.085 124.046C155.465 126.925 153.101 146.117 153.101 150.771C153.101 150.898 152.998 151.001 152.871 151.001Z" fill="black"/>
</g>
<g opacity="0.199997">
<path d="M152.26 124.177H146.65C146.183 124.177 145.868 123.793 145.951 123.324L146.066 122.67C146.149 122.201 146.598 121.817 147.066 121.817H152.675C153.142 121.817 153.457 122.201 153.375 122.67L153.26 123.324C153.177 123.793 152.727 124.177 152.26 124.177Z" fill="black"/>
</g>
<path d="M137.068 166.071L139.845 166.027L140.646 159.564L137.869 159.608L137.068 166.071Z" fill="#FFBE9D"/>
<path d="M150.326 165.867L153.024 165.037L151.35 158.913L148.652 159.742L150.326 165.867Z" fill="#FFBE9D"/>
<path d="M152.942 164.226L149.934 165.784C149.833 165.836 149.782 165.951 149.811 166.061L150.455 168.514C150.522 168.769 150.812 168.892 151.043 168.767C152.002 168.25 152.678 167.827 153.897 167.196C154.647 166.808 156.949 165.715 157.985 165.178C158.997 164.654 158.627 163.544 158.155 163.671C156.04 164.238 154.311 164.405 153.42 164.171C153.259 164.129 153.089 164.149 152.942 164.226Z" fill="#1A2E35"/>
<path d="M139.9 165.705L136.869 165.753C136.755 165.754 136.658 165.835 136.635 165.946L136.126 168.431C136.073 168.689 136.271 168.929 136.533 168.92C137.626 168.885 139.205 168.795 140.58 168.774C142.187 168.749 142.653 168.815 144.538 168.785C145.678 168.767 145.976 167.606 145.497 167.509C143.318 167.066 142.467 167.043 140.572 165.911C140.366 165.789 140.14 165.701 139.9 165.705Z" fill="#1A2E35"/>
<path d="M144.117 81.2906C144.747 82.5577 145.458 83.9024 146.172 85.1792C146.894 86.4639 147.641 87.731 148.447 88.9293C148.653 89.2215 148.847 89.5313 149.059 89.8147L149.576 90.5247C149.685 90.6641 149.744 90.7305 149.76 90.7629C149.775 90.7933 149.788 90.8386 149.921 90.8473C150.185 90.8663 150.74 90.5884 151.235 90.202C151.488 90.0067 151.744 89.7856 151.998 89.552C152.245 89.3222 152.503 89.0447 152.722 88.8241L154.538 89.8512C154.372 90.2934 154.199 90.6516 153.993 91.0389C153.791 91.4202 153.559 91.7918 153.287 92.1537C153.017 92.5193 152.702 92.8696 152.319 93.2071C151.938 93.5445 151.47 93.8598 150.861 94.0809C150.263 94.3052 149.484 94.3805 148.763 94.1958C148.04 94.0177 147.444 93.6447 147.005 93.2532C146.882 93.1545 146.794 93.0552 146.691 92.9546L146.541 92.8018L146.436 92.6822L146.032 92.2174C145.759 91.9086 145.512 91.5901 145.254 91.2734C144.255 89.9943 143.364 88.6667 142.539 87.3049C142.134 86.6208 141.733 85.9358 141.368 85.2305C140.996 84.5191 140.641 83.8392 140.299 83.065L144.117 81.2906Z" fill="#FFBE9D"/>
<path d="M139.137 81.3074C138.389 83.8628 143.659 90.8299 143.659 90.8299L148.972 87.3983C148.972 87.3983 147.41 83.8439 145.29 81.1333C143.113 78.3503 139.959 78.5031 139.137 81.3074Z" fill="#A61E22"/>
<g opacity="0.199997">
<path d="M139.137 81.3074C138.389 83.8628 143.659 90.8299 143.659 90.8299L148.972 87.3983C148.972 87.3983 147.41 83.8439 145.29 81.1333C143.113 78.3503 139.959 78.5031 139.137 81.3074Z" fill="black"/>
</g>
<g opacity="0.199997">
<path d="M142.378 84.3073C143.471 84.7763 145.079 87.4172 145.916 89.3749L143.661 90.8289C143.661 90.8289 141.631 88.1461 140.271 85.4978C140.984 84.7135 141.8 84.0608 142.378 84.3073Z" fill="black"/>
</g>
<path d="M152.408 89.3265L154.331 86.2055L156.007 88.8944C156.007 88.8944 155.392 90.0729 154.156 90.4127L152.408 89.3265Z" fill="#FFBE9D"/>
<path d="M157.011 86.239L157.004 87.2042C157.002 87.5043 156.898 87.7951 156.709 88.0282L156.007 88.8947L154.332 86.2058L156.065 85.5701C156.526 85.4007 157.014 85.746 157.011 86.239Z" fill="#FFBE9D"/>
<path d="M155.136 90.2262L152.109 90.1795L153.784 83.8887L156.811 83.9349L155.136 90.2262Z" fill="#A61E22"/>
<path d="M155.443 90.2262L152.416 90.1795L154.091 83.8887L157.118 83.9349L155.443 90.2262Z" fill="#1A2E35"/>
<g opacity="0.199997">
<path d="M140.646 159.566L140.233 162.898L137.455 162.941L137.867 159.61L140.646 159.566Z" fill="black"/>
</g>
<g opacity="0.199997">
<path d="M148.652 159.744L151.352 158.914L152.213 162.071L149.514 162.901L148.652 159.744Z" fill="black"/>
</g>
<path d="M127.399 82.6588C129.664 92.4564 129.171 102.17 129.42 104.265C131.592 104.107 139.771 103.495 144.229 103.161C145.649 87.2398 142.284 79.157 142.284 79.157C142.284 79.157 141.332 78.9719 140.037 78.8385C139.63 78.7965 139.192 78.76 138.737 78.736C138.485 78.7208 138.229 78.7125 137.969 78.7069C136.294 78.6797 133.558 78.947 131.673 79.1782C131.279 79.2272 130.877 79.2867 130.488 79.3504C130.128 79.4123 129.774 79.4778 129.44 79.5447C129.425 79.548 129.411 79.5512 129.395 79.554C127.979 79.8392 127.072 81.2467 127.399 82.6588Z" fill="#A61E22"/>
<g opacity="0.199997">
<path d="M127.399 82.6588C129.664 92.4564 129.171 102.17 129.42 104.265C131.592 104.107 139.771 103.495 144.229 103.161C145.649 87.2398 142.284 79.157 142.284 79.157C142.284 79.157 141.332 78.9719 140.037 78.8385C139.63 78.7965 139.192 78.76 138.737 78.736C138.485 78.7208 138.229 78.7125 137.969 78.7069C136.294 78.6797 133.558 78.947 131.673 79.1782C131.279 79.2272 130.877 79.2867 130.488 79.3504C130.128 79.4123 129.774 79.4778 129.44 79.5447C129.425 79.548 129.411 79.5512 129.395 79.554C127.979 79.8392 127.072 81.2467 127.399 82.6588Z" fill="black"/>
</g>
<g opacity="0.199997">
<path d="M129.925 84.7185L128.227 86.9121C128.231 86.9402 128.236 86.9642 128.236 86.9929C128.472 88.4788 128.657 89.937 128.794 91.3375C130.417 89.3194 130.176 85.6777 129.925 84.7185Z" fill="black"/>
</g>
<path d="M132.41 74.8313C132.764 76.3278 132.743 77.9901 131.674 79.1773C132.856 80.1929 134.389 81.3547 136.801 81.2596C139.212 81.165 138.669 79.536 137.968 78.7074C135.908 78.3737 135.905 77.0313 135.889 75.556C135.886 75.249 135.686 74.9781 135.395 74.8839L133.132 74.1555C132.711 74.0193 132.308 74.3987 132.41 74.8313Z" fill="#FFBE9D"/>
<path d="M138.191 84.3894H138.188C137.875 84.3904 137.594 84.5284 137.354 84.7998C136.88 85.3357 136.662 86.3111 136.783 87.3451C136.974 88.9723 137.96 90.3451 138.937 90.3451H138.94C139.254 90.3442 139.534 90.2066 139.774 89.9357C140.248 89.3997 140.466 88.4239 140.345 87.3894H140.345C140.154 85.7627 139.168 84.3894 138.191 84.3894ZM138.937 90.8067C137.697 90.8067 136.55 89.3111 136.326 87.3996C136.188 86.2206 136.443 85.134 137.01 84.4933C137.336 84.1249 137.742 83.9292 138.187 83.9278H138.191C139.431 83.9278 140.578 85.4234 140.802 87.3354C140.941 88.5144 140.685 89.601 140.118 90.2417C139.792 90.6105 139.385 90.8058 138.94 90.8067H138.937Z" fill="#A61E22"/>
<g opacity="0.199997">
<path d="M135.891 75.6405L133.615 75.935C133.668 76.0347 133.729 76.1339 133.79 76.229C134.221 76.9219 135.182 77.3784 136.156 77.5441C135.91 77.0078 135.901 76.3384 135.891 75.6405Z" fill="black"/>
</g>
<path d="M138.844 69.7017C140.111 69.9164 142.476 68.4724 141.924 66.5535C141.215 67.4435 138.844 67.1467 138.844 67.1467V69.7017Z" fill="#1A2E35"/>
<path d="M133.903 71.7578C134.041 73.0392 132.464 75.3233 130.588 74.6558C131.516 73.9984 131.362 71.6059 131.362 71.6059L133.903 71.7578Z" fill="#1A2E35"/>
<path d="M132.049 69.255C131.71 71.9984 131.371 73.5872 132.477 75.2361C134.14 77.7159 137.709 77.1005 138.859 74.5141C139.894 72.1858 140.276 68.0899 137.831 66.5135C135.423 64.9597 132.389 66.5112 132.049 69.255Z" fill="#FFBE9D"/>
<path d="M131.674 72.0133C132.342 72.7191 134.177 69.8373 133.842 68.8088C134.532 69.1089 135.857 68.5314 135.774 67.3843C137.84 68.4922 140.831 69.3701 140.88 67.3644C140.928 65.3583 139.039 63.8825 137.189 63.7242C137.41 64.3178 136.826 64.5749 135.627 64.3178C134.429 64.0602 129.796 61.929 130.309 66.197C128.59 66.3115 128.361 68.512 131.674 72.0133Z" fill="#1A2E35"/>
<path d="M130.321 70.9689C130.417 71.7084 130.845 72.3339 131.335 72.6995C132.072 73.2488 132.529 72.6663 132.599 71.7961C132.662 71.0128 132.593 69.7835 131.721 69.5767C130.862 69.3732 130.211 70.1237 130.321 70.9689Z" fill="#FFBE9D"/>
<path d="M134.494 103.889L144.229 103.163C144.229 103.163 145.487 123.209 145.392 131.712C145.295 140.553 141.265 162.238 141.265 162.238L136.565 162.31C136.565 162.31 136.935 141.277 136.935 132.596C136.935 120.903 134.494 103.889 134.494 103.889Z" fill="#1A2E35"/>
<g opacity="0.199997">
<path d="M138.256 124.726C138.384 125.305 142.003 141.557 143.172 151.049C143.797 147.103 144.435 142.678 144.866 138.771L138.256 124.726Z" fill="black"/>
</g>
<path d="M138.977 103.554C138.977 103.554 146.383 121.772 148.056 129.76C149.888 138.508 152.814 160.633 152.814 160.633L147.791 161.421C147.791 161.421 143.983 144.881 141.856 136.431C139.433 126.805 129.84 111.555 129.422 104.268L138.977 103.554Z" fill="#1A2E35"/>
<path d="M153.447 161.063L147.201 162.53L146.414 160.118L153.233 158.944L153.447 161.063Z" fill="#A61E22"/>
<path d="M141.857 162.338L136.255 162.426L136.227 160.61L142.487 160.416L141.857 162.338Z" fill="#A61E22"/>
<path d="M135.858 70.6849C135.817 70.9062 135.9 71.1067 136.044 71.134C136.188 71.1608 136.338 71.0037 136.379 70.7829C136.42 70.5616 136.337 70.3606 136.194 70.3333C136.05 70.3065 135.899 70.4636 135.858 70.6849Z" fill="#1A2E35"/>
<path d="M138.583 71.2647C138.542 71.486 138.625 71.6869 138.769 71.7142C138.913 71.741 139.062 71.5834 139.104 71.3626C139.145 71.1413 139.062 70.9403 138.918 70.9135C138.774 70.8868 138.624 71.0434 138.583 71.2647Z" fill="#1A2E35"/>
<path d="M137.684 71.2118C137.684 71.2118 137.947 72.58 138.383 73.2983C137.926 73.5896 137.295 73.2988 137.295 73.2988L137.684 71.2118Z" fill="#263238"/>
<path d="M136.829 73.977C135.991 73.7857 135.65 73.1588 135.635 73.1292C135.618 73.0974 135.63 73.0576 135.662 73.0405C135.694 73.0234 135.734 73.0355 135.751 73.0673C135.755 73.0747 136.153 73.8028 137.13 73.8906C137.165 73.8943 137.193 73.9262 137.189 73.9627C137.186 73.9987 137.154 74.0255 137.118 74.0228C137.016 74.0131 136.919 73.9978 136.829 73.977Z" fill="#1A2E35"/>
<path d="M135.586 69.6954C135.565 69.688 135.546 69.676 135.531 69.6589C135.481 69.6049 135.485 69.5212 135.539 69.4723C136.077 68.9802 136.667 69.1276 136.692 69.1341C136.762 69.1526 136.804 69.2246 136.785 69.2953C136.767 69.3656 136.696 69.4081 136.626 69.39C136.606 69.385 136.146 69.2755 135.716 69.6672C135.68 69.701 135.63 69.7097 135.586 69.6954Z" fill="#1A2E35"/>
<path d="M140.05 70.5785C140.009 70.5651 139.976 70.5318 139.964 70.4879C139.811 69.9252 139.363 69.77 139.344 69.7635C139.276 69.7409 139.238 69.666 139.26 69.5972C139.283 69.5284 139.356 69.4905 139.425 69.5122C139.45 69.521 140.026 69.7132 140.218 70.4177C140.237 70.4884 140.196 70.5609 140.126 70.5803C140.099 70.5877 140.074 70.5863 140.05 70.5785Z" fill="#1A2E35"/>
<path d="M153.415 164.311C153.878 164.178 154.192 163.996 154.268 163.812C154.302 163.731 154.292 163.648 154.238 163.558C154.212 163.514 154.186 163.509 154.166 163.509C153.987 163.509 153.642 163.956 153.415 164.311ZM153.98 164.236C153.752 164.354 153.481 164.434 153.288 164.481C153.263 164.488 153.235 164.478 153.22 164.456C153.204 164.436 153.203 164.406 153.216 164.383C153.277 164.281 153.821 163.377 154.166 163.377C154.219 163.377 154.295 163.396 154.351 163.491C154.427 163.617 154.44 163.743 154.39 163.863C154.326 164.015 154.167 164.138 153.98 164.236Z" fill="#A61E22"/>
<path d="M153.285 163.215C153.237 163.24 153.201 163.279 153.178 163.336C153.071 163.581 153.207 164.038 153.285 164.262C153.439 163.937 153.543 163.365 153.428 163.217C153.418 163.204 153.393 163.173 153.312 163.203C153.303 163.206 153.294 163.21 153.285 163.215ZM153.303 164.476C153.292 164.482 153.279 164.484 153.266 164.483C153.242 164.48 153.222 164.465 153.213 164.443C153.199 164.412 152.891 163.667 153.057 163.283C153.1 163.183 153.17 163.114 153.267 163.078C153.415 163.024 153.496 163.091 153.532 163.136C153.726 163.385 153.511 164.183 153.328 164.455C153.321 164.464 153.313 164.471 153.303 164.476Z" fill="#A61E22"/>
<path d="M141.655 165.601C141.445 165.532 140.843 165.772 140.406 165.991C141.021 166.083 141.477 166.049 141.646 165.894C141.705 165.84 141.73 165.77 141.722 165.681C141.719 165.646 141.706 165.626 141.679 165.611C141.672 165.607 141.664 165.604 141.655 165.601ZM140.18 166.086C140.157 166.078 140.139 166.058 140.136 166.033C140.131 166.005 140.145 165.978 140.17 165.965C140.295 165.897 141.401 165.311 141.741 165.495C141.807 165.53 141.846 165.59 141.853 165.669C141.865 165.8 141.825 165.909 141.734 165.992C141.435 166.267 140.637 166.17 140.188 166.088C140.186 166.087 140.182 166.087 140.18 166.086Z" fill="#A61E22"/>
<path d="M140.906 164.885L140.908 164.885L140.906 164.885ZM140.968 164.963C140.951 164.957 140.929 164.953 140.901 164.951C140.801 164.942 140.714 164.971 140.634 165.039C140.405 165.233 140.313 165.683 140.281 165.903C140.62 165.692 141.064 165.211 141.031 165.023C141.028 165.011 141.023 164.981 140.968 164.963ZM140.18 166.086C140.174 166.084 140.169 166.081 140.163 166.077C140.144 166.064 140.133 166.041 140.135 166.018C140.138 165.986 140.201 165.234 140.549 164.938C140.656 164.847 140.778 164.807 140.912 164.819C141.093 164.834 141.147 164.926 141.16 164.999C141.216 165.314 140.561 165.927 140.228 166.083C140.213 166.09 140.196 166.091 140.18 166.086Z" fill="#A61E22"/>
<path d="M131.84 83.5171C130.923 85.1567 130.001 86.9062 129.174 88.6266C128.338 90.3535 127.579 92.1086 127.032 93.8364C126.964 94.0515 126.913 94.2629 126.851 94.4771C126.825 94.574 126.783 94.712 126.77 94.7762C126.762 94.8307 126.739 94.8791 126.733 94.9396C126.695 95.1709 126.698 95.4709 126.759 95.8111C126.888 96.4929 127.229 97.2869 127.656 98.0587C128.526 99.606 129.737 101.164 130.975 102.577L129.643 104.185C127.882 102.984 126.326 101.624 124.959 99.8668C124.294 98.9773 123.664 97.9973 123.27 96.7477C123.076 96.1246 122.944 95.4215 122.981 94.6566C122.986 94.4678 123.016 94.2707 123.039 94.0782C123.065 93.8959 123.092 93.7934 123.119 93.6466C123.174 93.3757 123.223 93.0982 123.286 92.8319C123.795 90.708 124.539 88.7536 125.374 86.8596C126.221 84.9601 127.143 83.1672 128.225 81.3558L131.84 83.5171Z" fill="#FFBE9D"/>
<path d="M128.95 79.7391C126.39 80.4426 123.875 87.6672 123.875 87.6672L130.039 89.383C130.039 89.383 131.398 87.6571 132.605 84.435C133.92 80.9245 132.051 78.8869 128.95 79.7391Z" fill="#A61E22"/>
<g opacity="0.199997">
<path d="M128.95 79.7391C126.39 80.4426 123.875 87.6672 123.875 87.6672L130.039 89.383C130.039 89.383 131.398 87.6571 132.605 84.435C133.92 80.9245 132.051 78.8869 128.95 79.7391Z" fill="black"/>
</g>
<path d="M129.794 102.102L132.607 102.845L131.49 105.501C131.49 105.501 128.963 104.964 128.981 103.582L129.794 102.102Z" fill="#FFBE9D"/>
<path d="M133.688 104.647L132.857 106.746L131.49 105.501L132.607 102.845L133.688 104.647Z" fill="#FFBE9D"/>
</svg>
