<svg width="31" height="31" viewBox="0 0 31 31" fill="none" xmlns="http://www.w3.org/2000/svg">
<path d="M25.0029 10.4283V22.6158C25.0029 26.3658 22.7654 27.6158 20.0029 27.6158H10.0029C7.24043 27.6158 5.00293 26.3658 5.00293 22.6158V10.4283C5.00293 6.36578 7.24043 5.42828 10.0029 5.42828C10.0029 6.20328 10.3154 6.90328 10.8279 7.41578C11.3404 7.92828 12.0404 8.24078 12.8154 8.24078H17.1904C18.7404 8.24078 20.0029 6.97828 20.0029 5.42828C22.7654 5.42828 25.0029 6.36578 25.0029 10.4283Z" stroke="white" stroke-width="1.5" stroke-linecap="round" stroke-linejoin="round"/>
<path d="M20.0029 5.42828C20.0029 6.97828 18.7404 8.24078 17.1904 8.24078H12.8154C12.0404 8.24078 11.3404 7.92828 10.8279 7.41578C10.3154 6.90328 10.0029 6.20328 10.0029 5.42828C10.0029 3.87828 11.2654 2.61578 12.8154 2.61578H17.1904C17.9654 2.61578 18.6655 2.92829 19.178 3.44079C19.6905 3.95329 20.0029 4.65328 20.0029 5.42828Z" stroke="white" stroke-width="1.5" stroke-linecap="round" stroke-linejoin="round"/>
<path d="M10.0029 16.3658H15.0029" stroke="white" stroke-width="1.5" stroke-linecap="round" stroke-linejoin="round"/>
<path d="M10.0029 21.3658H20.0029" stroke="white" stroke-width="1.5" stroke-linecap="round" stroke-linejoin="round"/>
</svg>
