<svg width="28" height="28" viewBox="0 0 28 28" fill="none" xmlns="http://www.w3.org/2000/svg">
<rect width="28" height="28" fill="white"/>
<g clip-path="url(#clip0_666_12900)">
<path d="M24.0657 14.2365C24.0657 13.5386 24.0092 12.837 23.8884 12.1504H14.2046V16.1039H19.7501C19.52 17.379 18.7806 18.5069 17.6979 19.2237V21.7889H21.0063C22.9491 20.0008 24.0657 17.3601 24.0657 14.2365Z" fill="#4285F4"/>
<path d="M14.2043 24.2661C16.9733 24.2661 19.3084 23.357 21.0098 21.7877L17.7014 19.2224C16.7809 19.8486 15.5926 20.2032 14.2081 20.2032C11.5297 20.2032 9.25868 18.3962 8.44383 15.9668H5.02979V18.6113C6.77265 22.0781 10.3225 24.2661 14.2043 24.2661Z" fill="#34A853"/>
<path d="M8.44038 15.9679C8.01033 14.6928 8.01033 13.3121 8.44038 12.0371V9.39258H5.03011C3.57395 12.2936 3.57395 15.7114 5.03011 18.6124L8.44038 15.9679Z" fill="#FBBC04"/>
<path d="M14.2043 7.79602C15.668 7.77339 17.0827 8.32416 18.1428 9.33517L21.0739 6.40399C19.2179 4.66113 16.7545 3.70293 14.2043 3.73311C10.3225 3.73311 6.77265 5.92112 5.02979 9.39176L8.44006 12.0362C9.25113 9.60301 11.5259 7.79602 14.2043 7.79602Z" fill="#EA4335"/>
</g>
<defs>
<clipPath id="clip0_666_12900">
<rect width="20.5333" height="20.5333" fill="white" transform="translate(3.73242 3.73242)"/>
</clipPath>
</defs>
</svg>
